<?xml version="1.0" encoding="UTF-8"?><svg id="Layer_1" xmlns="http://www.w3.org/2000/svg" viewBox="0 0 128 113.87"><path d="m44.21,58.19c.36.98.66,1.82.99,2.66.89,2.28,1.74,4.57,2.69,6.82.64,1.51.47,3,.2,4.52-1.1,6.31-2.2,12.61-3.3,18.92-.42,2.42-1.94,4.07-4.17,4.5-2.9.56-5.89-2.31-5.42-5.27.59-3.67,1.26-7.33,1.89-10.99.48-2.79.96-5.58,1.4-8.37.07-.42.01-.92-.14-1.32-2.13-5.55-4.25-11.11-6.44-16.63-.62-1.57-.7-3.06-.25-4.69,1.47-5.32,2.84-10.66,4.25-15.99.1-.39.22-.79.34-1.17.09-.29.29-.59-.19-.75-.49-.16-.65.12-.75.51-.28,1.09-.56,2.18-.85,3.28-.27,1.04-.54,2.07-.81,3.1-.09.08-.19.17-.28.25-.06-.19-.08-.39-.18-.56-1.18-1.95-2.42-3.86-3.55-5.84-1.04-1.81-.55-3.46,1.31-4.42,2.73-1.41,5.52-2.71,8.25-4.1,1.4-.71,2.72-.27,4.06.08,4.18,1.09,8.35,2.21,12.54,3.28,1.69.43,2.67,1.4,3.04,3.14.81,3.77,1.69,7.53,2.61,11.28.23.94.62,1.87,1.09,2.72,2.11,3.74,4.27,7.46,6.42,11.17.61,1.06.77,2.13.14,3.21-1.21,2.07-3.95,2.16-5.23.13-1.08-1.7-2.04-3.48-3.04-5.22-1.3-2.27-2.59-4.54-3.9-6.81-.82-1.41-1.43-2.88-1.46-4.54,0-.13-.06-.26-.24-.42-.24.71-.53,1.4-.72,2.12-.81,2.96-1.6,5.93-2.36,8.9-.05.19.14.54.32.68,2.11,1.67,4.2,3.37,6.38,4.94,1.72,1.24,2.82,2.76,3.34,4.84,1.47,5.88,3.08,11.73,4.56,17.61.7,2.78-.87,5.21-3.66,5.9-2.32.57-4.89-1.01-5.57-3.55-1.05-3.86-2.03-7.75-3.04-11.62-.44-1.69-.84-3.4-1.3-5.09-.09-.32-.29-.67-.55-.87-2.67-2.09-5.36-4.15-8.04-6.21-.03-.03-.09-.03-.38-.1Z"/><path d="m99.87,32.08c.2.03.41.02.59.09,5.68,2.15,10.74,5.25,14.67,9.96,3.7,4.44,5.79,9.56,6.31,15.33.58,6.39-.4,12.58-2.34,18.65-1.96,6.14-4.54,12.02-7.76,17.6-.35.6-.68,1.21-1.05,1.8-.1.15-.33.32-.5.32-2.11,0-4.22-.03-6.34-.06-.04,0-.07-.06-.16-.14.31-.43.63-.86.95-1.29,5.14-7.01,9.31-14.53,11.91-22.86,1.27-4.08,2.09-8.26,2.04-12.52-.1-8.59-3.33-15.8-10.13-21.19-2.17-1.72-4.62-3.09-6.95-4.61-.43-.28-.88-.56-1.32-.83.03-.08.05-.15.08-.23Z"/><path d="m51.66,22c-3.83.3-8.65-3.33-8.63-8.59.02-4.65,3.94-8.56,8.69-8.58,4.6-.02,8.51,3.92,8.53,8.57.02,4.91-4.17,8.79-8.59,8.6Z"/><path d="m35.42,77.64c-.09.57-.2,1.24-.31,1.91-.14.83-.29,1.65-.41,2.48-.06.44-.19.73-.67.89-6.47,2.12-12.93,4.27-19.41,6.38-.48.16-1.12.15-1.59-.02-2.72-1.02-5.4-2.11-8.1-3.18-.11-.04-.19-.13-.24-.17,10.22-2.75,20.45-5.51,30.74-8.29Z"/><path d="m66.07,69.35c-.25-1.02-.51-1.94-.68-2.87-.03-.15.28-.44.49-.56,3.92-2.13,7.91-4.14,11.76-6.4,3.81-2.24,7.18-5.08,9.93-8.57,1.91-2.43,3.05-5.16,2.7-8.34-.28-2.54-1.53-4.63-3.18-6.48-.91-1.02-1.95-1.91-2.94-2.86-.18-.18-.38-.34-.57-.51.03-.07.06-.13.09-.2.48.13,1.05.15,1.43.42,3.15,2.23,5.87,4.83,7.01,8.68.86,2.92.22,5.66-1.19,8.25-1.67,3.08-4.01,5.61-6.68,7.86-4.54,3.82-9.57,6.91-14.76,9.76-1.07.59-2.15,1.16-3.4,1.83Z"/><path d="m52.61,90.96c-1.04-.22-2.11-.36-3.13-.67-.82-.25-.9-.69-.31-1.33,1.08-1.16,2.53-1.41,4.02-1.36,1.17.04,2.27.38,3.13,1.25.7.72.61,1.25-.35,1.49-1.08.27-2.2.4-3.37.61Z"/><path d="m26.4,93.18c-1.16-.13-2.18-.15-3.14-.39-1.17-.29-1.27-.95-.36-1.76,1.67-1.49,5.51-1.36,7.06.24.63.66.57,1.2-.31,1.41-1.1.27-2.25.35-3.25.5Z"/><path d="m75.93,90.29c-1.03-.17-2.1-.27-3.14-.53-.98-.25-1.08-.67-.4-1.39,1.13-1.19,2.63-1.42,4.17-1.32,1.11.07,2.18.39,2.97,1.25.7.77.57,1.31-.43,1.52-1.03.22-2.08.31-3.18.47Z"/><path d="m73.3,95.8c-1.11-.18-2.16-.3-3.18-.53-.96-.22-1.09-.76-.39-1.48.95-.97,2.21-1.32,3.49-1.23,1.02.07,2.03.48,3.02.8.25.08.47.33.65.55.58.72.5,1.11-.39,1.33-1.06.26-2.16.39-3.2.57Z"/><path d="m87.98,93.2c-1.21-.16-2.21-.24-3.19-.44-.34-.07-.83-.4-.88-.68-.05-.3.25-.77.53-1.01,1.25-1.02,2.72-1.23,4.27-1.01,1.08.16,2.11.48,2.83,1.39.48.6.43.98-.3,1.17-1.13.29-2.29.41-3.26.57Z"/><path d="m59.06,92.18c.66-1.53,1.89-1.91,3.2-2.09,1.64-.22,3.22-.05,4.5,1.15.73.69.61,1.22-.37,1.48-2,.51-4.04.47-6.05.1-.44-.08-.84-.41-1.28-.64Z"/><path d="m50.49,97.11c-1.02-.12-1.89-.17-2.73-.35-.35-.07-.83-.38-.91-.67-.08-.28.2-.82.48-1,.61-.4,1.29-.75,1.99-.93,1.31-.34,2.62-.2,3.88.34.33.14.68.31.9.57.25.29.57.73.5,1.02-.06.28-.55.61-.9.67-1.11.19-2.24.26-3.21.35Z"/><path d="m91.63,99.6c-.97-.14-1.95-.25-2.91-.42-.9-.16-1.17-.89-.44-1.45.71-.55,1.6-.96,2.48-1.17,1.28-.31,2.58-.05,3.77.55.25.13.53.28.69.5.23.33.47.73.48,1.11,0,.15-.58.41-.92.46-1.04.18-2.08.28-3.15.42Z"/><path d="m49.21,77.09c.27-1.57.51-2.98.77-4.39.02-.12.14-.26.25-.31.67-.26,1.34-.53,2.03-.73.16-.04.53.14.57.29.3.98.55,1.98.78,2.99.03.13-.16.4-.31.46-1.3.55-2.61,1.07-4.1,1.68Z"/><path d="m73.26,82.46c-1.03-.18-1.9-.26-2.71-.5-.69-.2-.73-.59-.26-1.13,1.37-1.57,4.98-1.47,6.25.17.34.44.16.78-.27.88-1.04.25-2.1.4-3,.57Z"/><path d="m85.69,85.23c-.88-.15-1.78-.25-2.66-.46-.65-.16-.72-.51-.34-1.07.51-.73,1.3-.94,2.1-1.1,1.43-.28,2.77-.06,3.92.89.23.19.44.57.41.83-.02.18-.44.42-.71.47-.89.18-1.79.29-2.73.44Z"/><path d="m82.03,78.35c-.86-.13-1.86-.25-2.85-.45-.65-.13-.73-.43-.37-.97.08-.12.18-.23.28-.33,1.34-1.27,4.58-1.22,5.88.09.62.63.54,1.07-.31,1.27-.81.19-1.65.25-2.64.39Z"/><path d="m104.2,83.53c-.96-.12-1.81-.14-2.61-.34-.94-.24-1.04-.87-.22-1.46,1.26-.91,2.69-1.14,4.17-.66.62.2,1.24.53,1.73.95.54.47.42.91-.28,1.07-.95.22-1.93.31-2.79.44Z"/><path d="m97.43,88.21c-.71-.11-1.65-.18-2.55-.4-.73-.18-.83-.64-.24-1.12.47-.38,1.04-.74,1.61-.87,1.4-.31,2.83-.38,4.07.53.31.23.46.67.69,1.02-.36.21-.69.52-1.07.6-.75.15-1.52.16-2.52.25Z"/><path d="m94.16,80.43c-.86-.1-1.72-.16-2.57-.3-.81-.13-1.01-.64-.39-1.16.56-.47,1.3-.84,2.01-.98,1.18-.24,2.4-.19,3.49.48.26.16.52.36.7.61.36.5.18.95-.43,1.04-.93.13-1.86.21-2.8.3Z"/><path d="m84.61,72.95c-.71-.13-1.33-.18-1.91-.37-.63-.21-.66-.54-.21-.99.98-.98,3.54-.88,4.41.17.29.35.12.62-.21.72-.7.2-1.43.33-2.08.47Z"/><path d="m113.16,72.35c-1.58.66-3.08.68-4.59.2-.34-.11-.49-.36-.26-.66.67-.84,1.63-.96,2.61-.9.91.06,1.74.31,2.23,1.36Z"/><path d="m91.77,67.71c-1.52.7-3,.69-4.5.2-.13-.04-.28-.5-.2-.6.63-.87,1.56-1.02,2.55-.94.91.07,1.71.34,2.14,1.35Z"/><path d="m92.47,74.68c.36-1.21,1.37-1.26,2.31-1.34,1.25-.11,2.06.34,2.49,1.26-.69.72-3.57.79-4.8.08Z"/><path d="m110.88,67.62c.28-.29.51-.64.82-.82,1.16-.65,2.34-.59,3.47.1.24.15.36.47.53.72-.22.15-.43.37-.68.45-1.31.42-3.12.25-4.15-.45Z"/><path d="m84.42,64.48c-.41-.02-.96-.01-1.5-.1-.24-.04-.64-.27-.64-.4,0-.29.16-.71.39-.83.5-.25,1.08-.49,1.62-.47.69.02,1.4.26,2.06.5.21.08.44.51.39.73-.04.2-.42.42-.68.47-.49.09-1,.07-1.65.11Z"/><path d="m104.25,77.38c-.55-.03-1.11-.03-1.65-.11-.71-.11-.85-.57-.37-1.1.12-.14.28-.28.46-.34,1.08-.38,2.18-.41,3.21.09.3.15.44.6.66.92-.29.16-.57.4-.88.45-.47.08-.95.02-1.43.02,0,.03,0,.05,0,.08Z"/><path d="m97.75,69.53c.23-.27.39-.51.61-.68.87-.69,2.94-.69,3.8,0,.2.16.38.45.41.7.02.13-.31.44-.47.44-1.3-.02-2.6-.08-3.9-.15-.12,0-.23-.15-.45-.31Z"/><path d="m68.6,74.21c1.09-1.62,3.6-1.65,4.91-.11-.72.88-3.7.96-4.91.11Z"/><path d="m73.2,69.75c.9-1.62,3.16-1.63,4.33-.86.24.16.34.53.51.8-.28.15-.56.4-.84.42-.88.06-1.77.06-2.66,0-.43-.03-.85-.22-1.34-.35Z"/><path d="m95.87,65.46c0-.72.33-1.1.88-1.29.91-.32,1.85-.34,2.75-.02.33.12.65.41.86.7.24.33.13.7-.32.74-1.38.11-2.76.22-4.17-.14Z"/><path d="m97.78,59.72c.22-.83.72-1.21,1.42-1.26.83-.07,1.71-.16,2.28.68.28.41.28.72-.32.78-1.12.1-2.24.19-3.38-.19Z"/><path d="m103.52,62.64c.21-.85.71-1.24,1.55-1.31,1.13-.1,1.9.29,2.36,1.28-1.33.3-2.6.36-3.91.04Z"/><path d="m113.51,62.63c-1.26.33-2.51.31-3.78.02.26-.96.88-1.36,1.97-1.33,1.04.02,1.64.44,1.82,1.32Z"/><path d="m93.18,56.2c-.89.53-2.81.54-3.86.02.28-.81.96-1.2,2.04-1.18.97.02,1.6.42,1.82,1.16Z"/><path d="m116.06,58.18c-1.43.32-2.73.42-4.13-.07.54-.95,1.34-1.09,2.16-1.07.77.02,1.49.25,1.98,1.14Z"/><path d="m108.49,57.02c-1.43.41-2.74.33-4.16.07.38-.98,1.12-1.14,1.85-1.18.89-.06,1.7.17,2.31,1.11Z"/><path d="m91.4,60.92c.26-.74.89-.87,1.55-.9.87-.04,1.72,0,2.29.83-.85.8-2.95.82-3.84.07Z"/><path d="m100.92,48.79c-.31-.02-.6.03-.83-.06-.26-.1-.47-.33-.71-.5.17-.21.33-.58.52-.6.66-.07,1.35-.06,2.01.01.18.02.42.39.44.62,0,.14-.33.37-.56.44-.29.09-.61.07-.87.09Z"/><path d="m95.8,48.19c-.31,0-.63.05-.93-.02-.2-.04-.45-.21-.52-.38-.06-.13.08-.41.21-.54.49-.48,2.01-.48,2.5,0,.13.13.25.41.19.54-.08.17-.32.34-.52.38-.3.06-.62.02-.93.02h0Z"/><path d="m97.08,52.24c-1.19.53-2.25.44-3.39.05.3-.73.87-.89,1.46-.93.72-.05,1.44.02,1.93.88Z"/><path d="m101.52,52.92c.92-1.06,2.19-1.05,3.27-.03-.65.67-2.6.71-3.27.03Z"/><path d="m113.95,47.01c-.66.72-2.38.71-3.05-.02.73-1.04,2.36-1.03,3.05.02Z"/><path d="m100.55,56.32c-.95.4-1.88.32-2.79.17-.36-.06-.45-.33-.18-.64.66-.76,2.41-.54,2.96.47Z"/><path d="m115.39,53.56c-1.19.39-2.27.37-3.42.02.79-1.23,2.41-1.24,3.42-.02Z"/><path d="m106.14,50.03c.78-.93,2.22-.94,3.21-.01-.64.7-2.62.71-3.21.01Z"/><path d="m107.68,46.46h-2.91c.11-.83.55-1.07,1.66-.98,1.01.09,1.28.28,1.25.98Z"/><path d="m99.95,40.6c-.31,0-.63.04-.93-.01-.18-.03-.34-.2-.51-.3.12-.16.22-.42.38-.46.38-.09.8-.15,1.19-.09.21.04.37.35.55.55-.2.16-.4.32-.6.48-.03-.05-.06-.11-.08-.16Z"/><path d="m100.19,43.77c0-.59.31-.83.8-.83.55,0,1.13,0,1.31.83h-2.12Z"/><path d="m103.38,39.29c-.33-.18-.97-.39-.95-.52.06-.59.62-.5,1.06-.52.07,0,.16-.02.21.01.26.16.52.33.78.5-.25.12-.49.25-.74.35-.08.03-.19,0-.28,0-.03.06-.05.11-.08.17Z"/><path d="m95.33,43.73c-.07,0-.15.01-.21,0-.29-.05-.8.18-.73-.36.02-.21.49-.37.75-.55.03-.02.09,0,.14,0,.4.09,1.04-.13,1.01.56,0,.18-.58.33-.89.5-.02-.05-.05-.1-.07-.16Z"/><path d="m108.81,40.37c-.72,0-1.34.01-1.96-.01-.09,0-.25-.2-.24-.29.02-.15.13-.31.25-.4.48-.35,1.48-.06,1.94.7Z"/><path d="m99.61,45.33c-.66.48-1.33.26-1.96.21-.09,0-.23-.2-.22-.3,0-.11.13-.25.24-.32.52-.33,1.4-.16,1.95.41Z"/><path d="m95.99,39.36c.28.03.5,0,.65.09.16.09.26.3.38.45-.14.11-.27.31-.42.31-.43.02-.86-.02-1.29-.08-.13-.02-.25-.16-.37-.25.1-.12.17-.31.29-.36.26-.1.55-.12.75-.16Z"/><path d="m105.38,41.87c-.52,0-1.02.04-1.51-.03-.12-.02-.21-.34-.31-.52.42-.09.84-.25,1.27-.26.38,0,.69.2.55.81Z"/><path d="m92.1,38.25c.22-.14.44-.4.67-.41.43-.02.91,0,1.28.18.24.12.22.58-.21.6-.55.03-1.11-.06-1.66-.1-.03-.09-.05-.18-.08-.27Z"/><path d="m107.88,43.68c.6-.93,1.67-.91,2.22,0h-2.22Z"/><path d="m97.84,35.2c.3.22.53.39.76.57-.17.1-.37.3-.52.27-.3-.06-.58-.24-.87-.37.18-.13.36-.27.63-.47Z"/><path d="m97.25,37.5c.33-.5,1.07-.68,1.34-.43.07.07.14.24.11.3-.05.11-.2.23-.3.23-.35,0-.69-.06-1.15-.11Z"/><path d="m92.81,33.22c.36-.04.73-.11,1.09-.09.12,0,.24.23.36.35-.13.09-.26.26-.38.25-.37-.03-.74-.13-1.11-.2.01-.1.02-.21.04-.31Z"/><path d="m102.25,36.25c.14-.1.22-.21.28-.2.39.06.79.14,1.18.22-.04.12-.08.33-.14.34-.46.04-.93.07-1.32-.36Z"/><path d="m101.51,38.22c-.17.02-.34.07-.48.04-.27-.06-.52-.18-.78-.27.19-.14.37-.37.57-.4.4-.06.76.05.69.63Z"/><path d="m89.67,33.78c-.53,0-.94.02-1.33-.02-.06,0-.19-.37-.13-.44.2-.24,1.11-.04,1.46.46Z"/><path d="m91.67,35.48c-.24.05-.48.17-.71.14-.23-.02-.45-.18-.67-.28.23-.12.46-.32.7-.33.23,0,.48.18.71.28,0,.06-.02.13-.03.19Z"/><path d="m101.94,35.47h-1.37c-.04-.05-.07-.11-.11-.16.16-.13.3-.34.47-.36.38-.06.81-.11,1.01.52Z"/><path d="m96.64,34.9c-.44-.02-.88-.04-1.41-.07.46-.64,1-.64,1.41.07Z"/><path d="m105.87,37.41c-.29.08-.57.19-.86.21-.14.01-.29-.15-.44-.23.11-.13.23-.38.34-.38.33,0,.65.11.98.18,0,.07,0,.15,0,.22Z"/><path d="m95.75,36.14c-.58.04-1.02.07-1.52.1.28-.76.69-.78,1.52-.1Z"/><path d="m99.26,33.95c-.26-.18-.45-.31-.64-.44.26-.1.52-.24.79-.27.16-.02.34.14.51.23-.2.15-.4.29-.66.48Z"/></svg>