<?xml version="1.0" encoding="UTF-8"?>
<svg id="Layer_1" xmlns="http://www.w3.org/2000/svg" viewBox="0 0 30 30">
  <g id="_x36_dFNib">
    <g>
      <path d="M14.46,27.37c-.37.49-.41,1.03-.41,1.57,0,.38-.06.73-.55.72-.49,0-.55-.35-.53-.73.03-.55.06-1.09.1-1.64-.51.05-1.01.16-1.52.15-1.03-.01-1.79-.64-1.95-1.54-.16-.9.36-1.65,1.39-2.04.44-.17.9-.16,1.43-.23-.25-.38-.63-.48-.93-.67-.72-.46-1.44-.92-1.97-1.58-.57-.7-.95-1.59-2.16-1.14-.32.12-.54-.28-.48-.66.04-.23.09-.46.18-.67.26-.6.09-.82-.56-.99-3-.79-5.64-4.16-5.95-7.51-.16-1.74-.01-3.43.85-5,1.58-2.89,4.69-3.95,7.67-2.55.49.23.73.17,1.07-.23,2.7-3.16,6.84-3.01,9.35.31.2.27.31.59.79.27,3.56-2.29,7.73-.34,8.88,3.65,1.12,3.91-.71,8.48-4.25,10.48-.25.14-.51.28-.78.38-.43.17-1.03.18-1.26.48-.25.33.14.86.22,1.31.12.68-.28.85-.83.71-.69-.17-1.06.05-1.43.66-.75,1.23-2.03,1.88-3.35,2.69.81.16,1.52.19,2.12.61.67.48.92,1.11.72,1.9-.3,1.18-1.42,1.55-3.44,1.15.04.58.09,1.15.11,1.72.02.38-.08.72-.56.71-.43,0-.49-.31-.52-.66-.04-.54-.11-1.07-.17-1.61-.08,0-.15,0-.23,0,0,.53.01,1.07,0,1.6,0,.34-.11.66-.53.66-.43,0-.52-.32-.53-.66-.01-.55,0-1.09,0-1.64ZM19.99,8.56c0-2.32-.47-3.91-1.58-5.28-2.05-2.52-5.55-2.45-7.51.13-2.5,3.28-1.7,8.6,1.64,11.02,1.56,1.13,2.96,1.12,4.46-.12,1.98-1.64,2.93-3.78,2.99-5.76ZM28.41,9.28c.03-1.26-.27-2.43-.89-3.52-1.4-2.44-4.31-3.19-6.61-1.7-.31.2-.55.35-.39.82,1.1,3.26.55,6.24-1.53,8.96-.17.22-.29.4-.11.7,1.26,2.07,2.96,3.3,5.42,1.87,2.71-1.58,4.02-4.02,4.12-7.13ZM1.58,9.85c.06,2.34,1.27,4.72,3.76,6.35,2.1,1.38,3.89,1,5.37-1.02.27-.36.29-.58-.02-.95-2.39-2.87-3-6.09-1.71-9.61.16-.45.06-.62-.32-.8-1.15-.54-2.32-.7-3.55-.27-2.19.76-3.52,2.89-3.52,6.3ZM15.54,23.59c1.65-1.33,3.59-1.88,4.62-3.67q-1.66-.48-.87-1.94c.07-.13.12-.27.21-.38.21-.26.15-.46-.09-.67-.52-.43-.92-.97-1.3-1.53-.08-.11-.19-.26-.3-.28-.4-.06-1.15.88-1.04,1.27.08.28.17.55.26.83.29.96.18,1.14-.81,1.17-.35.01-.7-.05-.69.5.02,1.48,0,2.96,0,4.68ZM14.45,23.59c0-1.6-.03-2.96.01-4.32.02-.67-.16-.91-.86-.9-.82.01-.96-.29-.64-1.05.46-1.1.44-1.06-.55-1.65-.45-.26-.65-.15-.9.22-.19.29-.41.58-.68.79-.49.37-.51.69-.19,1.23.88,1.49.85,1.51-.83,2.05,1.06,1.76,2.99,2.32,4.64,3.64ZM17.62,24.75c-.45.09-1.31.07-1.4.67-.09.59.79.59,1.27.8.03.01.05.03.08.03.54.1,1.09.25,1.56-.2.21-.2.26-.48.1-.72-.36-.49-.9-.58-1.61-.59ZM12.28,24.74c-.62.04-1.21.08-1.55.65-.13.22-.07.46.11.64.46.47,1.01.31,1.55.22.03,0,.06-.02.08-.03.49-.22,1.36-.22,1.3-.79-.07-.61-.92-.61-1.49-.7ZM9.85,18.72c-.14-.26-.24-.43-.32-.62-.23-.53-.6-.19-.88-.1-.37.11-.45.5-.37.79.11.39.48.14.72.13.26-.02.51-.11.85-.2ZM20.18,18.73c.39.09.71.16,1.04.23.64.14.57-.23.44-.63-.13-.41-.56-.47-.85-.46-.44.02-.44.5-.64.85ZM14.29,17.2c.35.17.7.06,1.04.11.58.08.53-.24.4-.62-.1-.29-.28-.34-.59-.35-.65-.02-.74.41-.85.87Z"/>
      <path d="M24.54,23.51c-.4.02-.81.04-1.21.04-.27,0-.43-.19-.46-.44-.04-.26.08-.49.33-.55.39-.11.81-.16,1.18.05.43.24.17.61.14.93l.03-.03Z"/>
      <path d="M5.48,25.62c0,.4.02.8,0,1.2-.02.3-.24.46-.52.46-.25,0-.46-.16-.5-.4-.06-.39-.15-.8.11-1.16.28-.38.63-.07.94-.07l-.03-.03Z"/>
      <path d="M25.41,22.65c-.84,0-1.26-.66-.89-1.43.1-.21.25-.31.47-.32.28,0,.43.17.49.41.13.46.02.92-.11,1.37l.03-.03Z"/>
      <path d="M25.37,22.68c.32-.15.65-.21,1.01-.19.38.02.73.12.75.55.02.46-.35.52-.72.54-.66.03-1.2-.04-1-.93,0,0-.03.03-.03.03Z"/>
      <path d="M5.49,23.92c0,.41.04.88-.57.84-.51-.03-.51-.45-.51-.83,0-.42.01-.88.55-.89.58,0,.53.48.53.89Z"/>
      <path d="M24.51,23.54c.33-.09.71-.29.91.13.19.42.2.91-.05,1.33-.11.18-.33.2-.54.14-.22-.06-.32-.22-.35-.44-.06-.41-.01-.8.07-1.2,0,0-.03.03-.03.03Z"/>
      <path d="M3.72,25.68c-.37-.03-.88.07-.87-.53.01-.55.47-.56.89-.56.43,0,.86.06.84.61-.02.53-.48.46-.86.49Z"/>
      <path d="M5.51,25.66c-.2-.34-.36-.72.11-.95.43-.21.89-.22,1.3.07.18.13.19.35.13.55-.07.22-.24.33-.45.33-.37,0-.74-.02-1.11-.04,0,0,.03.03.03.03Z"/>
      <path d="M10.53,7.14c.27-1.91,1-3.3,2.53-4.18.33-.19.72-.4.98.05.26.44-.07.68-.43.88-1.23.71-1.8,1.84-1.98,3.2-.05.38-.24.61-.63.55-.4-.06-.48-.36-.47-.5Z"/>
      <path d="M26.41,9.29c0-1.15-.33-2.24-1.23-3.09-.31-.29-.66-.6-.24-1.01.41-.39.75-.03,1.04.26,1.1,1.09,1.55,2.43,1.49,3.95-.02.43.04,1.07-.66.99-.63-.07-.47-.62-.39-1.1Z"/>
      <path d="M2.5,9.14c.03-1.45.49-2.73,1.56-3.75.29-.27.62-.55.98-.2.41.4.06.72-.25,1.01-.92.88-1.26,1.99-1.2,3.24.02.4.17.9-.42.96-.64.07-.59-.5-.66-.91-.02-.11,0-.23,0-.35Z"/>
    </g>
  </g>
</svg>