<?xml version="1.0" encoding="UTF-8"?><svg id="Layer_1" xmlns="http://www.w3.org/2000/svg" viewBox="0 0 80 80"><path d="m79,0h-3c-.55,0-1,.45-1,1s.45,1,1,1h3c.55,0,1-.45,1-1s-.45-1-1-1Z"/><path d="m50.35,27.67c0-.55-.45-1-1-1h-6.1c-.55,0-1,.45-1,1s.45,1,1,1h6.1c.55,0,1-.45,1-1Z"/><path d="m17.85,66.55c-.55,0-1,.45-1,1s.45,1,1,1h6.1c.55,0,1-.45,1-1s-.45-1-1-1h-6.1Z"/><path d="m26.34,54.25c0-.55-.45-1-1-1h-6.1c-.55,0-1,.45-1,1s.45,1,1,1h6.1c.55,0,1-.45,1-1Z"/><path d="m28.55,39.3c.23,0,.46-.08.65-.24.42-.36.47-.99.11-1.41-.85-.99-1.29-2.19-1.29-3.47,0-.45.06-.9.17-1.34.14-.54-.18-1.08-.71-1.22-.54-.13-1.08.18-1.22.71-.16.6-.24,1.22-.24,1.84,0,1.74.63,3.43,1.77,4.77.2.23.48.35.76.35Z"/><path d="m31.13,29.2c.13,0,.26-.02.38-.08.73-.3,1.5-.45,2.3-.45h3.35c.55,0,1-.45,1-1s-.45-1-1-1h-3.35c-1.06,0-2.09.2-3.06.6-.51.21-.75.79-.54,1.31.16.39.53.62.93.62Z"/><path d="m30.04,68.55h6.1c.55,0,1-.45,1-1s-.45-1-1-1h-6.1c-.55,0-1,.45-1,1s.45,1,1,1Z"/><path d="m37.25,55.25c.11,0,.22,0,.33,0,.55-.03.98-.49.95-1.04-.02-.55-.5-.99-1.04-.95-.09,0-.18,0-.28,0h-5.77c-.55,0-1,.45-1,1s.45,1,1,1h5.81Z"/><path d="m7.8,66.55c-.62,0-1.23-.09-1.81-.27-.52-.17-1.09.13-1.25.66s.13,1.09.66,1.25c.78.24,1.59.37,2.41.37h3.95c.55,0,1-.45,1-1s-.45-1-1-1h-3.95Z"/><path d="m69.9,2c.55,0,1-.45,1-1s-.45-1-1-1h-6.1c-.55,0-1,.45-1,1s.45,1,1,1h6.1Z"/><path d="m60.56,69.4c-1.49-1.81-3.72-2.85-6.12-2.85h0c-.55,0-1,.45-1,1s.45,1,1,1c1.8,0,3.46.77,4.57,2.12.2.24.48.37.77.37.22,0,.45-.07.63-.23.43-.35.49-.98.14-1.41Z"/><path d="m14.14,54.25c0-.55-.45-1-1-1h-5.34c-.29,0-.57.02-.86.04-.55.06-.95.55-.89,1.1.05.52.49.9.99.9.03,0,.07,0,.1,0,.21-.02.43-.03.65-.03h5.34c.55,0,1-.45,1-1Z"/><path d="m0,61.04C0,61.9.15,62.75.45,63.55c.15.4.53.65.94.65.12,0,.23-.02.35-.06.52-.19.78-.77.59-1.29-.21-.58-.32-1.19-.32-1.82v-.28c0-1.01.29-2,.85-2.87.3-.46.16-1.08-.3-1.38-.46-.3-1.08-.16-1.38.3C.4,57.99,0,59.36,0,60.75v.28Z"/><path d="m39.96,42.25c.39,0,.76-.23.92-.61.22-.51-.02-1.1-.53-1.31-1-.42-2.05-.64-3.15-.64h-3.26c-.55,0-1,.45-1,1s.45,1,1,1h3.26c.82,0,1.62.16,2.37.48.13.05.26.08.39.08Z"/><path d="m59.9,24.37c-1.05,1.39-2.69,2.23-4.49,2.3-.55.02-.98.48-.96,1.04.02.54.46.96,1,.96.01,0,.02,0,.04,0,2.4-.09,4.59-1.21,6.01-3.09.33-.44.25-1.07-.2-1.4-.44-.33-1.07-.25-1.4.2Z"/><path d="m52.78,14.32c0-.55-.45-1-1-1h-1.68c-1.3,0-2.52-.4-3.54-1.15-.45-.33-1.07-.23-1.4.21-.33.45-.23,1.07.21,1.4,1.37,1,3,1.54,4.73,1.54h1.68c.55,0,1-.45,1-1Z"/><path d="m57.71,0h-6.1c-.55,0-1,.45-1,1s.45,1,1,1h6.1c.55,0,1-.45,1-1s-.45-1-1-1Z"/><path d="m62.03,20.14c.53-.14.85-.69.7-1.23-.61-2.25-2.31-4.13-4.54-5.02-.51-.21-1.1.04-1.3.55-.21.51.04,1.09.55,1.3,1.66.67,2.91,2.05,3.36,3.69.12.45.52.74.96.74.09,0,.18-.01.26-.04Z"/><path d="m41.95,50.9c-.33.44-.24,1.07.21,1.4.18.13.39.2.59.2.31,0,.61-.14.8-.4.95-1.28,1.45-2.78,1.45-4.36v-.54c0-.59-.07-1.18-.21-1.75-.13-.54-.68-.86-1.21-.73-.54.13-.86.68-.73,1.21.1.41.15.84.15,1.27v.54c0,1.14-.36,2.24-1.05,3.17Z"/><path d="m45.22,1.66c-1.85,1.43-2.91,3.57-2.91,5.85v.24c0,.55.45,1,1,1s1-.45,1-1v-.24c0-1.66.78-3.22,2.14-4.27.44-.34.52-.97.18-1.4-.34-.44-.97-.52-1.4-.18Z"/><path d="m42.24,68.55h6.1c.55,0,1-.45,1-1s-.45-1-1-1h-6.1c-.55,0-1,.45-1,1s.45,1,1,1Z"/><path d="m61.24,80c.55,0,1-.45,1-1v-3c0-.55-.45-1-1-1s-1,.45-1,1v3c0,.55.45,1,1,1Z"/><path d="m4.32,19.65c-.18.58-.27,1.19-.27,1.81,0,3.38,2.75,6.12,6.12,6.12,1.07,0,2.1-.29,3-.8v13.22c0,.55.45,1,1,1s1-.45,1-1v-13.22c.91.51,1.93.8,3,.8,3.38,0,6.12-2.75,6.12-6.12,0-.62-.09-1.23-.28-1.82,2.48-.79,4.28-3.14,4.28-5.83s-1.8-5.05-4.29-5.84c.19-.6.29-1.22.29-1.85,0-3.38-2.75-6.12-6.12-6.12-1.49,0-2.9.53-4,1.49-1.1-.96-2.51-1.49-4-1.49-3.38,0-6.12,2.75-6.12,6.12,0,.62.1,1.24.28,1.84C1.82,8.73,0,11.08,0,13.81s1.81,5.07,4.32,5.85Zm1.5-9.95c.34-.02.65-.23.81-.53s.15-.67-.02-.97c-.37-.63-.57-1.35-.57-2.08,0-2.27,1.85-4.12,4.12-4.12,1.26,0,2.43.57,3.22,1.56.38.47,1.18.47,1.56,0,.79-.99,1.96-1.56,3.22-1.56,2.27,0,4.12,1.85,4.12,4.12,0,.73-.2,1.45-.57,2.08-.17.3-.18.66-.02.97.16.31.46.51.81.54,2.12.17,3.79,1.97,3.79,4.1s-1.66,3.92-3.77,4.1c-.34.03-.64.23-.8.53-.16.3-.15.67.02.96.36.63.55,1.34.55,2.05,0,2.27-1.85,4.12-4.12,4.12-1.16,0-2.22-.5-3-1.34v-6.7c1.65-.25,3.15-1.09,4.22-2.4.35-.43.28-1.06-.14-1.41-.43-.35-1.06-.29-1.41.14-.69.84-1.63,1.41-2.67,1.64v-4.21c0-.55-.45-1-1-1s-1,.45-1,1v4.21c-1.04-.22-1.98-.79-2.67-1.64-.35-.43-.98-.49-1.41-.14-.43.35-.49.98-.14,1.41,1.07,1.32,2.57,2.16,4.22,2.4v6.7c-.78.84-1.85,1.34-3,1.34-2.27,0-4.12-1.85-4.12-4.12,0-.72.19-1.42.55-2.05.17-.3.18-.66.02-.97-.16-.3-.47-.5-.81-.53-2.14-.16-3.81-1.96-3.81-4.1s1.68-3.95,3.82-4.11Z"/><path d="m80,45.23c0-2.7-1.8-5.05-4.29-5.84.19-.6.29-1.22.29-1.85,0-3.38-2.75-6.12-6.12-6.12-1.49,0-2.9.53-4,1.49-1.1-.96-2.51-1.49-4-1.49-3.38,0-6.12,2.75-6.12,6.12,0,.62.1,1.24.28,1.84-2.51.77-4.33,3.12-4.33,5.85s1.81,5.07,4.32,5.85c-.18.58-.27,1.19-.27,1.81,0,3.38,2.75,6.12,6.12,6.12,1.07,0,2.1-.29,3-.8v13.22c0,.55.45,1,1,1s1-.45,1-1v-13.22c.91.51,1.93.8,3,.8,3.38,0,6.12-2.75,6.12-6.12,0-.62-.09-1.23-.28-1.82,2.48-.79,4.28-3.14,4.28-5.83Zm-5.77,4.1c-.34.03-.64.23-.8.53-.16.3-.15.67.02.96.36.62.55,1.33.55,2.05,0,2.27-1.85,4.12-4.12,4.12-1.15,0-2.22-.5-3-1.34v-6.7c1.65-.25,3.15-1.08,4.22-2.4.35-.43.28-1.06-.14-1.41-.43-.35-1.06-.28-1.41.14-.69.85-1.63,1.41-2.67,1.64v-4.21c0-.55-.45-1-1-1s-1,.45-1,1v4.21c-1.04-.22-1.98-.79-2.67-1.64-.35-.43-.98-.49-1.41-.14-.43.35-.49.98-.14,1.41,1.07,1.32,2.57,2.15,4.22,2.4v6.7c-.78.84-1.85,1.34-3,1.34-2.27,0-4.12-1.85-4.12-4.12,0-.72.19-1.43.55-2.05.17-.3.18-.66.02-.97-.16-.3-.47-.5-.81-.53-2.14-.16-3.81-1.96-3.81-4.1s1.68-3.95,3.82-4.11c.34-.02.65-.23.81-.53s.15-.67-.02-.97c-.37-.63-.57-1.35-.57-2.08,0-2.27,1.85-4.12,4.12-4.12,1.26,0,2.43.57,3.22,1.56.19.24.48.38.78.38s.59-.14.78-.38c.79-.99,1.96-1.56,3.22-1.56,2.27,0,4.12,1.85,4.12,4.12,0,.73-.2,1.45-.57,2.08-.17.3-.18.66-.02.97.16.31.46.51.81.54,2.12.17,3.79,1.97,3.79,4.1s-1.66,3.92-3.77,4.1Z"/></svg>