<?xml version="1.0" encoding="UTF-8"?>
<svg id="Layer_1" xmlns="http://www.w3.org/2000/svg" viewBox="0 0 30 30">
  <g id="JCUYsh">
    <g>
      <path d="M16.2,26.01c3.37-.1,7.34-.27,11.17-1.55.06-.02.13-.03.19-.06.55-.22,1.24-.43,1.17-1.14-.07-.7-.83-.67-1.34-.77-2.17-.41-4.39-.36-6.58-.55-.8-.07-1.37-.3-1.58-1.16-.2-.79-.85-1.12-1.6-1.29-2.12-.48-4.26-.17-6.39-.14-.26,0-.7.37-.77-.23-.08-.62.47-.45.76-.48,1.8-.19,3.62-.25,5.42-.08,1.46.13,2.9.49,3.36,2.23.15.56.66.46,1.07.48,1.97.11,3.95.11,5.9.41.48.08.97.18,1.43.34.54.19,1.04.47,1.09,1.14.05.65-.27,1.13-.81,1.47-.96.61-2.06.89-3.15,1.1-6.93,1.34-13.85,1.35-20.76-.14-1.07-.23-2.09-.62-3.03-1.17-1.57-.91-1.69-2.46-.2-3.48,1.9-1.29,4.14-1.6,6.36-1.93.19-.03.31.04.34.24.06.38-.21.42-.48.46-1.17.17-2.32.44-3.46.77-.79.23-1.56.5-2.25.97-1.07.73-1.1,1.51-.05,2.24,1.08.74,2.32,1.07,3.58,1.34,3.29.71,6.63.97,10.61.97Z"/>
      <path d="M3.45,26.05c8.19,1.82,16.32,1.9,24.42-.15-4.46,3.14-19.49,3.25-24.42.15Z"/>
      <path d="M11.09,21.45c-1.21.45-2.27.56-3.47-.04,1.58-.02,1.31-1.04,1.31-1.94,0-5.03,0-10.07,0-15.1,0-.62.1-1.25-.18-1.85-.14-.3-.02-.59.27-.76.21-.13.46-.11.65.03.26.19.43.45.24.76-.32.52-.22,1.08-.22,1.63,0,5.03,0,10.07,0,15.1,0,.95-.41,2.18,1.4,2.16Z"/>
      <path d="M16.98,5.8c-2,.72-4,1.43-5.99,2.15-.49.18-.55-.07-.55-.47.01-1.22,0-2.44,0-3.65,0-.28-.07-.68.44-.5,2.04.71,4.07,1.44,6.11,2.16,0,.1,0,.21,0,.31Z"/>
      <path d="M17.56,22.99c-.05.6-.39.98-.98,1-.61.02-.98-.34-1-.97-.01-.63.33-.99.95-1,.62-.01.96.34,1.03.98Z"/>
    </g>
  </g>
</svg>