<?xml version="1.0" encoding="UTF-8"?>
<svg id="Layer_1" xmlns="http://www.w3.org/2000/svg" viewBox="0 0 76 76">
  <defs>
    <style>
      .cls-1 {
        fill: #fff;
      }

      .cls-2 {
        fill: #a35538;
        stroke: #fff;
        stroke-miterlimit: 10;
      }
    </style>
  </defs>
  <circle class="cls-2" cx="38" cy="38" r="37.5"/>
  <g>
    <path class="cls-1" d="M38.22,31.28h-.43c-.19,0-.37-.07-.51-.22s-.21-.33-.2-.53l.09-3.71c0-.4.32-.71.71-.71h.26c.38,0,.7.31.71.71l.09,3.72c0,.2-.07.38-.2.52-.13.14-.32.21-.51.21"/>
    <path class="cls-1" d="M38.39,39.82h-.78c-.19,0-.37-.08-.5-.22-.13-.14-.21-.33-.2-.53l.09-4.81c0-.4.32-.72.71-.72h.61c.38,0,.7.32.71.72l.09,4.81c0,.2-.07.39-.2.53-.13.14-.31.22-.5.22"/>
    <path class="cls-1" d="M37.52,42.09h.96c.38,0,.7.31.71.71l.16,6.35c0,.2-.07.38-.2.52-.13.14-.32.21-.51.21h-1.27c-.19,0-.37-.07-.51-.21-.13-.14-.21-.33-.2-.53l.16-6.34c0-.4.32-.71.71-.71"/>
    <path class="cls-1" d="M24.34,48.9l7.95-22.31c.1-.29.37-.47.66-.47h.28c.23,0,.44.1.57.29.13.19.17.43.1.65l-6.84,22.31c-.09.3-.37.5-.67.5h-1.38c-.23,0-.45-.11-.58-.31-.13-.2-.16-.44-.08-.67"/>
    <path class="cls-1" d="M42.78,26.12h.28c.3,0,.56.18.66.47l7.95,22.32c.08.23.05.47-.08.66-.13.2-.35.3-.58.3h-1.38c-.31,0-.58-.2-.67-.5l-6.84-22.32c-.07-.22-.03-.46.1-.65.13-.19.34-.29.57-.29"/>
  </g>
</svg>