<?xml version="1.0" encoding="UTF-8"?>
<svg id="Layer_1" xmlns="http://www.w3.org/2000/svg" viewBox="0 0 30 30">
  <g id="sqBHRM">
    <g>
      <path d="M27.39,14.98c0,3.93,0,7.86,0,11.79,0,1.95-.79,2.72-2.75,2.72-6.44,0-12.87,0-19.31,0-1.91,0-2.71-.79-2.71-2.68,0-7.89,0-15.78,0-23.67,0-1.84.81-2.64,2.67-2.64,6.46,0,12.93,0,19.39,0,1.91,0,2.71.79,2.71,2.68,0,3.93,0,7.86,0,11.79ZM14.99,6.07c-3.56,0-7.11.02-10.67-.02-.7,0-.91.16-.91.89.03,6.6.02,13.2.02,19.8,0,1.5.43,1.93,1.91,1.93,6.44,0,12.87,0,19.31,0,1.44,0,1.89-.45,1.9-1.87,0-6.63-.01-13.25.02-19.88,0-.76-.25-.87-.92-.87-3.55.03-7.11.01-10.67.01ZM14.96,5.24c3.18,0,6.35,0,9.53,0q2.1,0,2.08-2.09c-.01-1.33-.47-1.81-1.79-1.81-2.53,0-5.06,0-7.59,0-3.98,0-7.97,0-11.95,0-1.32,0-1.78.48-1.79,1.81,0,.43.04.87,0,1.29-.06.62.13.82.79.82,3.58-.03,7.16-.02,10.74-.02Z"/>
      <path d="M15.04,8.6c4.83.02,8.77,3.99,8.75,8.82-.02,4.82-4.02,8.79-8.83,8.76-4.84-.04-8.76-3.99-8.75-8.84.01-4.82,3.99-8.76,8.83-8.74ZM14.99,25.33c4.35,0,7.93-3.54,7.97-7.88.04-4.37-3.54-8-7.91-8.02-4.39-.02-7.98,3.54-8.01,7.92-.02,4.37,3.57,7.97,7.95,7.98Z"/>
      <path d="M6.24,27.55c-.9,0-1.64-.74-1.63-1.63,0-.88.76-1.63,1.65-1.62.91,0,1.62.73,1.61,1.64,0,.91-.71,1.62-1.63,1.62ZM6.28,25.12c-.5.05-.81.32-.81.81,0,.45.27.75.74.77.47.02.76-.24.8-.71.05-.51-.25-.78-.73-.88Z"/>
      <path d="M7.34,3.31c-.01.79-.67,1.42-1.46,1.4-.76-.02-1.36-.64-1.37-1.41,0-.81.62-1.45,1.41-1.44.8,0,1.42.65,1.41,1.45ZM5.92,3.88c.28-.06.55-.19.57-.54.03-.39-.22-.62-.58-.63-.33-.01-.55.21-.56.56-.01.35.21.53.56.61Z"/>
      <path d="M23.46,2.88c.46,0,.91,0,1.37,0,.27,0,.47.14.45.45-.02.26-.22.36-.45.36-.96,0-1.93,0-2.89,0-.23,0-.41-.13-.41-.4,0-.27.18-.39.41-.4.51-.02,1.02,0,1.53,0h0Z"/>
      <path d="M8.83,2.89c.23.02.41.11.43.38.01.27-.17.4-.41.4-.2,0-.37-.11-.39-.33-.03-.26.12-.4.37-.45Z"/>
      <path d="M10.92,3.28c0,.27-.16.39-.41.39-.22,0-.36-.13-.38-.34-.02-.25.12-.41.37-.42.25-.01.4.12.41.38Z"/>
      <path d="M14.99,10.69c3.74,0,6.71,2.98,6.71,6.72,0,3.67-3.01,6.67-6.69,6.67-3.68,0-6.7-2.99-6.71-6.66-.01-3.74,2.96-6.74,6.7-6.74ZM20.88,17.37c0-3.22-2.64-5.85-5.87-5.86-3.22,0-5.88,2.62-5.89,5.83-.02,3.24,2.68,5.93,5.91,5.91,3.22-.02,5.86-2.67,5.85-5.88Z"/>
    </g>
  </g>
</svg>