<?xml version="1.0" encoding="iso-8859-1"?>
<!-- Uploaded to: SVG Repo, www.svgrepo.com, Generator: SVG Repo Mixer Tools -->
<svg fill="#000000" height="800px" width="800px" version="1.1" id="Layer_1" xmlns="http://www.w3.org/2000/svg" xmlns:xlink="http://www.w3.org/1999/xlink" 
	 viewBox="0 0 512 512" xml:space="preserve">
<g transform="translate(0 -1)">
	<g>
		<g>
			<path d="M307.2,412.062v-53.558c0-8.928-7.242-16.171-16.171-16.171h-52.992c-8.928,0-16.171,7.242-16.171,16.171v53.558
				c-3.18,1.124-6.071,2.856-8.533,5.06c-2.462-2.204-5.353-3.936-8.533-5.06v-53.558c0-8.928-7.242-16.171-16.171-16.171h-52.992
				c-8.928,0-16.171,7.242-16.171,16.171v53.558c-3.18,1.124-6.071,2.856-8.533,5.06c-2.462-2.204-5.353-3.936-8.533-5.06v-53.558
				c0-8.928-7.242-16.171-16.171-16.171H33.237c-8.928,0-16.171,7.242-16.171,16.171v53.558C7.123,415.575,0,425.051,0,436.2
				s7.123,20.625,17.067,24.138v44.128c0,4.713,3.82,8.533,8.533,8.533s8.533-3.821,8.533-8.533V461.8h51.2v42.667
				c0,4.713,3.821,8.533,8.533,8.533c4.713,0,8.533-3.821,8.533-8.533v-44.128c3.18-1.124,6.071-2.856,8.533-5.06
				c2.462,2.204,5.353,3.936,8.533,5.06v44.128c0,4.713,3.82,8.533,8.533,8.533s8.533-3.821,8.533-8.533V461.8h51.2v42.667
				c0,4.713,3.82,8.533,8.533,8.533s8.533-3.821,8.533-8.533v-44.128c3.18-1.124,6.071-2.856,8.533-5.06
				c2.462,2.204,5.353,3.936,8.533,5.06v44.128c0,4.713,3.82,8.533,8.533,8.533s8.533-3.821,8.533-8.533V461.8h51.2v42.667
				c0,4.713,3.82,8.533,8.533,8.533s8.533-3.821,8.533-8.533v-44.128c9.943-3.514,17.067-12.99,17.067-24.138
				S317.143,415.575,307.2,412.062z M238.933,359.4h51.2v51.2h-51.2V359.4z M136.533,359.4h51.2v51.2h-51.2V359.4z M34.133,359.4
				h51.2v51.2h-51.2V359.4z M93.867,444.733H25.6c-4.716,0-8.533-3.817-8.533-8.533c0-4.716,3.817-8.533,8.533-8.533h68.267
				c4.716,0,8.533,3.817,8.533,8.533C102.4,440.917,98.583,444.733,93.867,444.733z M196.267,444.733H128
				c-4.716,0-8.533-3.817-8.533-8.533c0-4.716,3.817-8.533,8.533-8.533h68.267c4.716,0,8.533,3.817,8.533,8.533
				C204.8,440.917,200.983,444.733,196.267,444.733z M298.667,444.733H230.4c-4.716,0-8.533-3.817-8.533-8.533
				c0-4.716,3.817-8.533,8.533-8.533h68.267c4.716,0,8.533,3.817,8.533,8.533C307.2,440.917,303.383,444.733,298.667,444.733z"/>
			<path d="M512,222.867c0-61.263-49.67-110.933-110.933-110.933s-110.933,49.67-110.933,110.933
				c0,58.392,45.123,106.252,102.4,110.61v170.99c0,4.713,3.821,8.533,8.533,8.533s8.533-3.821,8.533-8.533v-170.99
				C466.877,329.119,512,281.259,512,222.867z M409.6,316.343v-55.808l23.101-23.101c3.332-3.332,3.332-8.735,0-12.068
				c-3.333-3.333-8.735-3.333-12.068,0l-19.566,19.566l-19.566-19.566c-3.332-3.333-8.735-3.333-12.068,0
				c-3.332,3.332-3.332,8.735,0,12.068l23.101,23.101v55.808c-47.838-4.313-85.333-44.516-85.333-93.476
				c0-51.838,42.029-93.867,93.867-93.867c51.838,0,93.867,42.029,93.867,93.867C494.933,271.827,457.438,312.03,409.6,316.343z"/>
			<path d="M40.533,222.867h99.2c17.216,0,30.933-15.026,30.933-33.067c0-16.254-11.134-30.06-25.93-32.636
				c-2.784-33.403-22.927-53.764-50.87-53.764c-18.245,0-33.64,6.953-46.094,18.406c-5.435,4.998-9.5,10.007-12.28,14.233
				C15.349,138.711,0,157.194,0,179.287C0,203.189,17.966,222.867,40.533,222.867z M40.533,152.774c3.174,0,6.085-1.761,7.558-4.573
				c0.358-0.682,1.227-2.121,2.608-4.06c2.367-3.326,5.247-6.666,8.626-9.773c9.503-8.739,20.934-13.901,34.542-13.901
				c20.236,0,34.133,15.625,34.133,44.8c0,4.713,3.82,8.533,8.533,8.533h3.2c7.426,0,13.867,7.055,13.867,16s-6.441,16-13.867,16
				h-99.2c-12.777,0-23.467-11.707-23.467-26.513C17.067,164.481,27.756,152.774,40.533,152.774z"/>
			<path d="M204.8,26.6c18.873,0,34.133,15.26,34.133,34.133c0,4.713,3.82,8.533,8.533,8.533S256,65.446,256,60.733
				c0-23.584,19.083-42.667,42.667-42.667c4.713,0,8.533-3.821,8.533-8.533S303.38,1,298.667,1
				c-22.298,0-41.715,12.204-51.977,30.293c-9.261-13.16-24.557-21.76-41.89-21.76c-4.713,0-8.533,3.821-8.533,8.533
				S200.087,26.6,204.8,26.6z"/>
		</g>
	</g>
</g>
</svg>