<?xml version="1.0" encoding="UTF-8"?><svg id="Layer_1" xmlns="http://www.w3.org/2000/svg" viewBox="0 0 110 135"><defs><style>.cls-1{fill-rule:evenodd;}</style></defs><path class="cls-1" d="m103.83,43.04h-57.94c-.47,0-.88-.29-1.05-.76-.18-.41-.12-.94.23-1.23l28.94-29c.23-.18.53-.35.82-.35.35,0,.64.18.88.35l28.94,29c.35.29.41.82.23,1.23-.18.47-.59.76-1.05.76h0Zm-55.12-2.34h52.25l-26.13-26.13-26.13,26.13h0Z"/><path class="cls-1" d="m95.51,78.13h-41.36c-.64,0-1.17-.53-1.17-1.17v-35.09c0-.64.53-1.17,1.17-1.17h41.36c.64,0,1.17.53,1.17,1.17v35.09c0,.64-.53,1.17-1.17,1.17Zm-40.19-2.34h39.02v-32.75h-39.02v32.75Z"/><path class="cls-1" d="m74.83,64.13c-6.74,0-13.53-1.76-21.21-5.68-.59-.29-.76-1-.47-1.58.29-.59,1-.82,1.52-.53,14.35,7.27,26.01,7.27,40.31,0,.59-.29,1.29-.06,1.58.53.29.59.06,1.29-.53,1.58-7.68,3.93-14.41,5.68-21.21,5.68h0Z"/><path class="cls-1" d="m87.07,108.24h-5.74c-.7,0-1.17-.53-1.17-1.17v-30.11c0-.64.47-1.17,1.17-1.17h5.74c.64,0,1.17.53,1.17,1.17v30.11c0,.64-.53,1.17-1.17,1.17Zm-4.57-2.34h3.4v-27.77h-3.4v27.77Z"/><path class="cls-1" d="m68.39,108.24h-5.74c-.64,0-1.17-.53-1.17-1.17v-30.11c0-.64.53-1.17,1.17-1.17h5.74c.64,0,1.17.53,1.17,1.17v30.11c0,.64-.53,1.17-1.17,1.17Zm-4.57-2.34h3.4v-27.77h-3.4v27.77Z"/><path class="cls-1" d="m74.83,38.94c-3.52,0-6.33-2.87-6.33-6.39s2.81-6.33,6.33-6.33,6.39,2.81,6.39,6.33-2.87,6.39-6.39,6.39Zm0-10.37c-2.23,0-3.98,1.76-3.98,3.98s1.76,4.04,3.98,4.04,4.04-1.82,4.04-4.04-1.82-3.98-4.04-3.98Z"/><path class="cls-1" d="m95.51,53.12h-41.36c-.64,0-1.17-.53-1.17-1.17s.53-1.17,1.17-1.17h41.36c.64,0,1.17.53,1.17,1.17s-.53,1.17-1.17,1.17Z"/><path class="cls-1" d="m61.3,61.67c-.64,0-1.17-.53-1.17-1.17v-8.55c0-.64.53-1.17,1.17-1.17s1.17.53,1.17,1.17v8.55c0,.64-.53,1.17-1.17,1.17Z"/><path class="cls-1" d="m70.32,63.9c-.64,0-1.17-.53-1.17-1.17v-10.78c0-.64.53-1.17,1.17-1.17s1.17.53,1.17,1.17v10.78c0,.64-.53,1.17-1.17,1.17Z"/><path class="cls-1" d="m79.4,63.9c-.64,0-1.17-.53-1.17-1.17v-10.78c0-.64.53-1.17,1.17-1.17s1.17.53,1.17,1.17v10.78c0,.64-.53,1.17-1.17,1.17Z"/><path class="cls-1" d="m88.42,61.67c-.64,0-1.17-.53-1.17-1.17v-8.55c0-.64.53-1.17,1.17-1.17s1.17.53,1.17,1.17v8.55c0,.64-.53,1.17-1.17,1.17Z"/><path class="cls-1" d="m54.15,66.06h-8.91c-.64,0-1.17-.53-1.17-1.17v-5.8c0-.64.53-1.17,1.17-1.17h8.91c.64,0,1.17.53,1.17,1.17v5.8c0,.64-.53,1.17-1.17,1.17Zm-7.73-2.34h6.56v-3.46h-6.56v3.46Zm-5.57,2.34h-15.58c-.64,0-1.17-.53-1.17-1.17v-5.8c0-.64.53-1.17,1.17-1.17h15.58c.64,0,1.17.53,1.17,1.17v5.8c0,.64-.53,1.17-1.17,1.17Zm-14.41-2.34h13.24v-3.46h-13.24v3.46Zm-5.57,2.34h-8.96c-.64,0-1.17-.53-1.17-1.17v-5.8c0-.64.53-1.17,1.17-1.17h8.96c.64,0,1.17.53,1.17,1.17v5.8c0,.64-.53,1.17-1.17,1.17Zm-7.79-2.34h6.62v-3.46h-6.62v3.46Z"/><path class="cls-1" d="m11.97,108.24h-5.8c-.64,0-1.17-.53-1.17-1.17v-47.98c0-.64.53-1.17,1.17-1.17h5.8c.64,0,1.17.53,1.17,1.17v47.98c0,.64-.53,1.17-1.17,1.17Zm-4.63-2.34h3.46v-45.64h-3.46v45.64Z"/><path class="cls-1" d="m43.02,94.59c-.64,0-1.17-.53-1.17-1.17v-24.96c0-.64.53-1.17,1.17-1.17s1.17.53,1.17,1.17v24.96c0,.64-.53,1.17-1.17,1.17Z"/><path class="cls-1" d="m23.04,94.59c-.64,0-1.17-.53-1.17-1.17v-24.96c0-.64.53-1.17,1.17-1.17s1.17.53,1.17,1.17v24.96c0,.64-.53,1.17-1.17,1.17Z"/><path class="cls-1" d="m45.25,98.58h-24.37c-.64,0-1.17-.53-1.17-1.17v-3.98c0-.64.53-1.17,1.17-1.17h24.37c.64,0,1.17.53,1.17,1.17v3.98c0,.64-.53,1.17-1.17,1.17Zm-23.2-2.34h22.03v-1.64h-22.03v1.64Z"/><path class="cls-1" d="m23.04,69.64c-1.82,0-3.34-1.52-3.34-3.4v-8.5c0-1.88,1.52-3.4,3.34-3.4s3.4,1.52,3.4,3.4v8.5c0,1.88-1.52,3.4-3.4,3.4Zm0-12.94c-.53,0-1,.47-1,1.05v8.5c0,.59.47,1.05,1,1.05.59,0,1.05-.47,1.05-1.05v-8.5c0-.59-.47-1.05-1.05-1.05Z"/><path class="cls-1" d="m43.02,69.64c-1.82,0-3.34-1.52-3.34-3.4v-8.5c0-1.88,1.52-3.4,3.34-3.4s3.4,1.52,3.4,3.4v8.5c0,1.88-1.52,3.4-3.4,3.4Zm0-12.94c-.53,0-1,.47-1,1.05v8.5c0,.59.47,1.05,1,1.05.59,0,1.05-.47,1.05-1.05v-8.5c0-.59-.47-1.05-1.05-1.05Z"/></svg>