<?xml version="1.0" encoding="UTF-8"?>
<svg id="Layer_1" xmlns="http://www.w3.org/2000/svg" viewBox="0 0 30 30">
  <g id="_x33_fB3Ok">
    <g>
      <path d="M26.35,20.6c.41-.15.78-.32,1.16-.42.29-.08.58,0,.65.34.06.31-.16.45-.43.5-.22.04-.43.08-.58.28.21.26.54.26.79.41.23.14.43.31.29.61-.15.3-.42.35-.7.23-.16-.07-.29-.19-.44-.28-.85-.53-1.7-.56-2.46.14-.38.35-.73.41-1-.03-.27-.45.15-.6.46-.77.15-.08.29-.18.41-.25.03-.16-.06-.17-.13-.17-.27-.02-.57.09-.72-.24-.06-.14-.05-.3.06-.42.23-.26.53-.27.83-.17.26.08.51.2.81.31.24-.74-.14-1.4-.1-2.08.02-.37-.29-.14-.44-.12-1.04.17-2.06.22-2.92-.56-.1-.09-.27-.16-.2-.36.09-.11.19-.04.25.02.77.73,1.7.82,2.68.6.95-.21,1.9-.49,2.84-.74.51-.14.79-.46.88-1.01.27-1.81.57-3.62.85-5.43.04-.26.11-.56-.17-.77-.34,1.97-.7,3.92-1.02,5.88-.09.52-.25.85-.84.96-1.06.19-2.06.67-3.15.71-.47.02-.95.03-1.41-.47,1.69.75,3.09-.11,4.53-.46.41-.1.66-.5.74-1.02.23-1.56.55-3.11.83-4.67.2-1.09.05-1.33-1.02-1.59-2.22-.55-2.26-.53-2.93,1.63-.23.75-.38,1.54-.74,2.25-.29-.09-.17-.25-.13-.38.32-1.08.65-2.16.97-3.25.16-.56.51-.83,1.1-.81.96.04,1.89.23,2.78.58.6.23.86.69.76,1.31-.29,1.94-.6,3.87-.91,5.81-.08.52-.43.91-.92.99-.95.15-1.37.56-1.25,1.58.05.41-.11.87-.05,1.38ZM27.93,22.17c-.8-.69-3.51-1.65-4.09-1.36.57.02,1.03.1,1.46.47-.37.2-.68.34-.98.53-.16.1-.55.14-.38.43.19.32.37-.02.53-.14.89-.69,1.81-.7,2.76-.12.21.13.39.43.71.2ZM26.15,18.74c-.08-.19.15-.56-.25-.57-.42-.02-.34.35-.33.6,0,.22-.13.56.25.58.45.02.27-.36.33-.6Z"/>
      <path d="M3.52,17.1c-1.29-.09-1.31-.1-1.53-1.34-.33-1.85-.74-3.69-.95-5.59-.36.23-.24.58-.2.87.26,1.74.56,3.47.81,5.21.1.7.45,1.07,1.13,1.21.61.13,1.21.35,1.81.5,1.3.34,2.58.56,3.74-.68-.19.66-.64,1.01-1.33,1.18-.63.15-1.25.04-1.87-.05-.15-.02-.4-.17-.37.14.06.68-.31,1.32-.13,2,.25.09.44-.08.64-.16.34-.13.66-.26.98.03.15.13.2.3.13.48-.17.41-.58.18-.89.31.14.32.47.35.7.51.27.19.38.43.17.7-.18.23-.44.34-.73.17-.06-.04-.11-.1-.17-.14-1.04-.76-1.53-.78-2.65-.11-.15.09-.3.2-.46.24-.24.07-.45-.03-.56-.26-.12-.25.01-.43.22-.57.26-.18.63-.18.86-.45-.17-.22-.42-.24-.65-.29-.25-.05-.42-.21-.37-.48.06-.3.31-.42.57-.35.41.1.79.27,1.22.42.17-.82-.15-1.58-.08-2.35.03-.34-.32-.35-.55-.39-1.17-.17-1.61-.89-1.73-2.01-.17-1.55-.46-3.08-.71-4.62-.18-1.1.06-1.5,1.14-1.84.79-.25,1.61-.4,2.44-.42.45,0,.79.15.93.6.37,1.2.73,2.4,1.08,3.61.01.05-.04.12-.07.19-.27-.08-.25-.31-.31-.48-.28-.91-.6-1.82-.81-2.74-.18-.76-.61-.98-1.31-.85-.44.08-.89.14-1.33.25-1.05.25-1.2.49-1.02,1.52.29,1.63.6,3.26.88,4.89.09.51.21.73.74.39.45-.29.94-.51,1.49-.62-.58.32-1.16.64-1.76.97.27.28.68.14.86.45h.01ZM1.95,22.07c.24.21.37.22.48.14,1.12-.82,2.22-.97,3.3.06.1.1.24.11.33-.01.13-.18-.02-.27-.15-.34-.38-.21-.77-.42-1.18-.65.43-.38.89-.43,1.3-.63-1.37.32-2.67.84-4.06,1.43ZM4.44,18.81c-.05-.25.12-.62-.31-.63-.41,0-.25.36-.26.56,0,.23-.16.61.29.62.41,0,.22-.35.28-.55Z"/>
      <path d="M15.15,16.78c-2.34.04-4.67-.01-6.96-.58-.51-.13-1.01-.29-1.46-.58-.77-.5-.9-1.13-.33-1.84.34-.43.75-.81,1.14-1.21,1.22-1.26,2.55-2.44,3.66-3.8,1.46-1.79,6.06-1.82,7.57-.05,1.43,1.68,3.07,3.18,4.6,4.78.96,1.01.79,1.83-.48,2.39-1.55.67-3.21.77-4.87.88-.95.06-1.91.01-2.86.01ZM15.17,16.48c.93,0,1.86.05,2.79-.01,1.65-.11,3.32-.2,4.86-.88,1.01-.45,1.13-1.05.35-1.85-1.55-1.61-3.11-3.21-4.67-4.81-.44-.45-.94-.88-1.57-1-2.2-.44-4.31-.48-5.91,1.5-.3.37-.66.69-.99,1.03-1.07,1.1-2.15,2.19-3.2,3.3-.7.74-.58,1.33.33,1.77.34.16.7.28,1.06.37,2.29.56,4.62.62,6.96.59Z"/>
      <path d="M20.12,18.19c0,1.24,0,2.49,0,3.73,0,1.85,0,1.89-1.85,2.16-2.38.34-4.76.33-7.12-.13-1.17-.22-1.21-.33-1.21-1.49,0-1.18,0-2.36,0-3.54,0-.24-.08-.5.13-.75.24.16.16.4.16.59,0,1.28.03,2.56,0,3.84-.02.59.2.87.76,1,1.76.4,3.53.45,5.32.36.9-.04,1.8-.11,2.69-.32.61-.14.88-.4.85-1.08-.06-1.23-.02-2.46-.01-3.69,0-.23-.09-.49.3-.69Z"/>
      <path d="M23.83,15.64c.02.65-.47.88-.93,1.09-1.04.47-2.17.63-3.29.74-3.77.37-7.52.4-11.25-.37-.59-.12-1.17-.31-1.67-.66-.28-.19-.57-.39-.56-.92,1.24,1.37,2.85,1.46,4.39,1.62,3.76.41,7.52.44,11.25-.36.79-.17,1.55-.42,2.07-1.15Z"/>
      <path d="M8.25,11.21c-.38-.06-.34-.35-.41-.54-.27-.73-.57-1.45-.74-2.2-.19-.86-.71-1.05-1.42-.85-.66.18-1.6-.1-1.8.97-.25-.16-.43.24-.55.15-.22-.17-.05-.42.08-.59.34-.46.88-.56,1.39-.68,2.02-.47,2.16-.4,2.79,1.54.23.72.58,1.4.67,2.2Z"/>
      <path d="M21.65,11.25c.44-1.24.83-2.37,1.23-3.49.12-.32.42-.44.73-.43.88.03,1.75.15,2.56.54.17.08.33.23.44.39.1.15.28.4.03.51-.13.06-.46-.09-.56-.24-.42-.58-1.97-1.12-2.64-.87-.28.1-.35.34-.43.57-.29.83-.58,1.66-.87,2.48-.06.17-.04.41-.49.53Z"/>
      <path d="M10.01,9.21c-.25-.85-.54-1.7-.75-2.56-.15-.6-.49-.78-1.04-.64-.62.16-1.39,0-1.71.83-.04.1-.28.13-.43.19-.1-.29,0-.49.14-.66.37-.45,2.36-.87,2.85-.6.1.06.22.15.26.25.38,1.02.68,2.07.93,3.13l-.25.06Z"/>
      <path d="M19.74,9.14c.23-1.04.4-2.14.94-3.03.49-.8,1.42-.26,2.14-.12.54.1,1.15.27,1.09,1.1-.26-.02-.51-.12-.56-.31-.1-.41-.42-.46-.73-.54-1.6-.4-1.65-.37-2.12,1.21-.18.59-.36,1.17-.54,1.76-.08-.02-.16-.04-.24-.07Z"/>
      <path d="M3.51,17.12c.55-.09,1.03.18,1.53.3.67.17,1.32.25,2.02-.01-.64.55-2.03.41-3.54-.31,0,0-.01.01-.01.01Z"/>
      <path d="M10.81,22.51v-3.73s.06,0,.08,0v3.72s-.06,0-.08,0Z"/>
      <path d="M19.13,22.45v-3.63s.05,0,.08,0v3.69s-.05-.04-.08-.06Z"/>
      <path d="M26.91,16.24c-.15.14-.24.07-.33.02-.73-.37-1.46-.75-2.12-1.28.81.41,1.61.83,2.45,1.25Z"/>
      <path d="M9.07,12.49c-.55.48-1.11.95-1.5,1.29.28-.43.86-.88,1.36-1.41.05.04.09.08.14.12Z"/>
      <path d="M22.53,13.99c-.63-.6-1.12-1.06-1.6-1.52.59.36,1.03.85,1.6,1.52Z"/>
    </g>
  </g>
</svg>