<?xml version="1.0" encoding="utf-8"?>
<!-- Generator: Adobe Illustrator 27.4.0, SVG Export Plug-In . SVG Version: 6.00 Build 0)  -->
<svg version="1.1" id="Layer_1" xmlns:serif="http://www.serif.com/"
	 xmlns="http://www.w3.org/2000/svg" xmlns:xlink="http://www.w3.org/1999/xlink" x="0px" y="0px" viewBox="0 0 101 90.5"
	 style="enable-background:new 0 0 101 90.5;" xml:space="preserve">
<style type="text/css">
	.st0{fill-rule:evenodd;clip-rule:evenodd;}
</style>
<g serif:id="running track">
	<g transform="matrix(1,0,0,1,-221.403,-460.29)">
		<path class="st0" d="M287.4,537.6h-31c-8.5,0-16.7-3.4-22.7-9.4c-6-6-9.4-14.2-9.4-22.7c0-8.5,3.4-16.7,9.4-22.7
			c6-6,14.2-9.4,22.7-9.4h31c8.5,0,16.7,3.4,22.7,9.4c6,6,9.4,14.2,9.4,22.7c0,8.5-3.4,16.7-9.4,22.7
			C304.1,534.3,295.9,537.6,287.4,537.6z M258.4,535.6h29.1c8,0,15.6-3.2,21.3-8.8c5.6-5.6,8.8-13.3,8.8-21.3c0-8-3.2-15.6-8.8-21.3
			s-13.3-8.8-21.3-8.8h-31c-8,0-15.6,3.2-21.3,8.8s-8.8,13.3-8.8,21.3c0,8,3.2,15.6,8.8,21.3c5.6,5.6,13.3,8.8,21.2,8.8v-5.4
			c-13.2-0.5-23.8-11.4-23.8-24.7v0c0-13.7,11.1-24.7,24.7-24.7h29.2c13.7,0,24.7,11.1,24.7,24.7v0c0,13.7-11.1,24.7-24.7,24.7
			h-28.2V535.6z M268.6,528.3h17.9c12.6,0,22.7-10.2,22.7-22.7v0c0-12.6-10.2-22.7-22.7-22.7h-29.2c-12.6,0-22.7,10.2-22.7,22.7v0
			c0,12.6,10.2,22.7,22.7,22.7h9.3v-6.1h-9.1c-4.4,0-8.6-1.7-11.7-4.9c-3.1-3.1-4.9-7.3-4.9-11.7v0c0-4.4,1.8-8.6,4.9-11.7
			c3.1-3.1,7.3-4.9,11.7-4.9h28.7c4.4,0,8.6,1.7,11.7,4.9c3.1,3.1,4.9,7.3,4.9,11.7v0c0,4.4-1.7,8.6-4.9,11.7
			c-3.1,3.1-7.3,4.9-11.7,4.9h-17.6V528.3z M276.9,520.1h9.3c3.9,0,7.6-1.5,10.3-4.3c2.7-2.7,4.3-6.5,4.3-10.3v0
			c0-3.9-1.5-7.6-4.3-10.3c-2.7-2.7-6.5-4.3-10.3-4.3h-28.7c-3.9,0-7.6,1.5-10.3,4.3c-2.7,2.7-4.3,6.5-4.3,10.3v0
			c0,3.9,1.5,7.6,4.3,10.3c2.7,2.7,6.5,4.3,10.3,4.3h17.3V515h-16.2c-5.2,0-9.5-4.2-9.5-9.5v0c0-5.2,4.2-9.5,9.5-9.5h26.5
			c5.2,0,9.5,4.2,9.5,9.5v0c0,5.2-4.2,9.5-9.5,9.5h-8.2V520.1z M258.7,513h26.5c4.1,0,7.5-3.3,7.5-7.5v0c0-4.1-3.3-7.5-7.5-7.5
			h-26.5c-4.1,0-7.5,3.3-7.5,7.5v0C251.2,509.7,254.5,513,258.7,513z"/>
	</g>
</g>
</svg>
