<?xml version="1.0" encoding="UTF-8"?>
<svg id="Layer_1" xmlns="http://www.w3.org/2000/svg" viewBox="0 0 30 30">
  <path d="M7.33,12.94c.38.81.77,1.69,1.14,2.51.08.17.15.2.32.12,3.58-1.68,7.16-3.35,10.75-5.01.22-.1.25-.18.14-.39-.46-.95-.9-1.91-1.34-2.86-.44-.95-.14-2,.7-2.51.88-.53,1.95-.32,2.59.53.09.12.13.12.23,0,.64-.71,1.61-.74,2.29-.07.1.1.14.13.27.01.75-.7,1.83-.5,2.27.43.88,1.87,1.76,3.75,2.63,5.63.47,1-.05,1.93-1.14,2.08-.03,0-.05.02-.08.03.02.17.12.3.18.45.41,1.02-.27,2.1-1.38,2.14-.2,0-.21.07-.17.24.22.98-.29,1.93-1.22,2.26-.92.34-1.95-.07-2.39-.99-.59-1.22-1.15-2.45-1.72-3.68-.07-.15-.12-.23-.32-.14-3.6,1.69-7.19,3.36-10.8,5.04-.19.09-.21.15-.12.34.56,1.18,1.09,2.38,1.67,3.55.46.93.18,2.07-.72,2.6-.89.52-1.94.27-2.62-.63-.01-.01-.02-.03-.06-.06-.38.48-.85.73-1.46.66-.52-.06-.92-.32-1.18-.78-.08-.14-.12-.15-.24-.03-.75.69-1.82.51-2.25-.41-.91-1.9-1.8-3.81-2.68-5.73-.42-.92.12-1.87,1.13-1.99.18-.02.18-.06.13-.21-.35-1.07.31-2.02,1.44-2.08.25-.01.15-.14.13-.25-.21-1.05.35-1.99,1.37-2.28.54-.15,1.06-.06,1.55.23,0,0,.5.3.95,1.27ZM11.34,23.53c.02-.21-.1-.43-.2-.65-1.26-2.7-2.52-5.4-3.78-8.1-.29-.63-.58-1.25-.87-1.88-.26-.57-.81-.89-1.36-.78-.8.16-1.2.98-.84,1.76,1.12,2.4,2.24,4.79,3.36,7.19.47,1.01.94,2.03,1.42,3.04.25.52.8.77,1.34.65.54-.13.93-.61.93-1.22ZM24.79,17.9c.96,0,1.52-.91,1.15-1.73-.36-.79-.74-1.58-1.11-2.37-1.21-2.59-2.42-5.19-3.63-7.78-.11-.24-.25-.44-.47-.59-.47-.3-1.03-.27-1.44.09-.41.35-.53.93-.29,1.44.68,1.47,1.37,2.93,2.05,4.4.9,1.93,1.8,3.85,2.7,5.78.22.48.59.75,1.04.77ZM9.83,18.16c.05-.02.11-.05.17-.08.45-.21.91-.42,1.36-.63,3.11-1.45,6.22-2.91,9.34-4.35.21-.1.21-.18.13-.36-.23-.46-.45-.93-.66-1.41-.08-.17-.14-.2-.32-.12-1.82.86-3.64,1.7-5.46,2.55-1.75.81-3.49,1.63-5.24,2.44-.18.08-.25.15-.14.36.24.48.46.97.69,1.45.03.06.03.15.14.15ZM3.46,14.7c-.74,0-1.09.61-.82,1.2.79,1.69,1.58,3.38,2.36,5.07.47,1,.94,2.01,1.41,3.01.22.46.66.63,1.08.44.43-.19.59-.66.37-1.13-.46-.99-.92-1.98-1.38-2.97-.79-1.7-1.59-3.39-2.38-5.09-.16-.34-.4-.53-.65-.53ZM26.69,15.29c.77,0,1.15-.58.91-1.14-.24-.56-.53-1.1-.79-1.65-.72-1.51-1.42-3.02-2.13-4.54-.31-.67-.6-1.34-.91-2.01-.15-.33-.43-.48-.8-.46-.33.02-.6.25-.7.57-.07.24-.02.46.08.68.74,1.58,1.48,3.16,2.21,4.74.5,1.08,1.01,2.15,1.51,3.23.16.34.39.57.6.57ZM5.25,23.4c0-.11-.05-.25-.11-.38-.35-.75-.7-1.5-1.05-2.25-.52-1.11-1.04-2.22-1.56-3.33-.16-.34-.39-.48-.7-.45-.48.05-.72.52-.5,1,.66,1.43,1.33,2.85,1.99,4.27.23.49.46.99.7,1.48.14.27.44.39.74.31.27-.07.48-.33.48-.66ZM28.77,11.97c0-.1-.05-.22-.1-.33-.61-1.3-1.21-2.6-1.82-3.9-.28-.6-.55-1.2-.85-1.8-.16-.34-.57-.45-.88-.29-.32.17-.44.51-.28.85.9,1.93,1.81,3.86,2.71,5.8.14.3.4.43.71.35.31-.07.51-.33.51-.68ZM8.47,15.45,6.38,11.67"/>
</svg>