<?xml version="1.0" encoding="UTF-8"?>
<svg id="Layer_1" xmlns="http://www.w3.org/2000/svg" viewBox="0 0 30 30">
  <g id="ZNTM0X">
    <g>
      <path d="M13.73.58c3.57,0,7.14,0,10.71,0,1.83,0,2.47.65,2.47,2.47,0,5.31,0,10.63,0,15.94,0,.67.03,1.11.86,1.35,1.08.3,1.68,1.19,1.7,2.35.03,1.33.06,2.66-.01,3.98-.09,1.66-1.4,2.78-3.08,2.76-1.59-.03-2.86-1.19-2.93-2.79-.06-1.28-.03-2.57-.02-3.86.01-1.22.63-2.09,1.74-2.47.64-.22.83-.48.82-1.12-.02-5.44-.02-10.87,0-16.31,0-1.01-.41-1.41-1.42-1.4-7.26.02-14.53.02-21.79,0-1.09,0-1.47.5-1.47,1.52.01,6.18.01,12.37,0,18.55,0,1.04.43,1.5,1.49,1.5,4.81-.02,9.63-.02,14.44,0,.76,0,1.04-.25.99-1.01-.05-.79,0-1.58,0-2.37,0-.31.06-.62.43-.63.37,0,.46.29.47.6,0,1.04.04,2.08-.02,3.11-.05.77-.53,1.17-1.33,1.17-5.15,0-10.29.01-15.44-.02-1.15,0-1.83-.72-1.83-1.91-.02-6.47-.02-12.95,0-19.43,0-1.4.7-2,2.26-2.01,3.65-.01,7.31,0,10.96,0ZM26.44,23.91c-2.4.04-2.16-.32-2.18,1.5-.02,2.06.72,3.13,2.15,3.15,1.46.02,2.26-1.05,2.24-3.06-.02-1.9.28-1.55-2.21-1.59ZM28.15,22.92s.55.23.43-.41c-.13-.74-.59-1.38-1.36-1.39-.58,0-.23.65-.3,1.01-.13.72.22.98,1.23.79ZM25.96,21.93c-.08-.22.25-.71-.32-.8-.49-.08-1.36.91-1.32,1.47.05.63.54.35.85.41.82.14.87-.38.78-1.07Z"/>
      <path d="M8.68,17.48c-.42-.21-.52-.27-.63-.31q-2.34-.74-2.34-3.16c0-3.07,0-6.14,0-9.21,0-1.61.03-1.68,1.48-1.14,2.04.75,4.33.85,6.11,2.29.22.18.36.02.53-.1,1.99-1.38,4.4-1.61,6.6-2.42.56-.21.75.13.75.64,0,3.94,0,7.88,0,11.82,0,.49-.19.73-.68.87-.7.2-1.46.19-2.13.61.08.04.11.07.15.08q3.41.27,3.41-3.11c0-2.24,0-4.48,0-6.72,0-.48.12-.99-.28-1.41-.27-.28-.17-.56.2-.64.3-.07.7-.19.85.24.09.27.08.57.08.86,0,3.48-.03,6.97.03,10.45.02,1.08-.41,1.34-1.39,1.3-1.82-.06-3.65-.02-5.48-.01-.61,0-1.23-.09-1.8.29-.21.14-.59.15-.85.07-2.6-.76-5.26-.25-7.89-.35-.97-.04-1.4-.22-1.38-1.31.06-3.48.02-6.97.03-10.45,0-.25,0-.5.04-.74.09-.45.46-.41.79-.39.39.02.54.34.37.6-.53.82-.26,1.7-.27,2.55-.04,2.61,0,5.23-.03,7.84-.01.75.21,1.05.98.99.8-.06,1.61-.01,2.75-.01ZM6.53,10.19c0,1.58.03,3.15-.01,4.72-.02.69.17,1.04.9,1.19,1.58.32,3.15.71,4.71,1.1.69.17.94.02.93-.74-.04-2.82-.02-5.64,0-8.46,0-1.1-.5-1.8-1.55-2.12-1.35-.41-2.7-.79-4.03-1.25-.75-.26-.96-.06-.94.69.03,1.62,0,3.23,0,4.85ZM20.26,10.33c0-1.7-.01-3.4,0-5.09,0-.61-.15-.83-.79-.61-1.37.47-2.76.87-4.13,1.32-.88.29-1.37.91-1.38,1.85-.01,2.94,0,5.88-.02,8.82,0,.59.21.72.73.59,1.57-.38,3.13-.78,4.71-1.09.73-.15.9-.51.88-1.19-.04-1.53-.01-3.06-.01-4.6Z"/>
      <path d="M8.76,18.99c1.27.26,2.92-.46,4.44.45.26.16.69.07,1.05-.17.86-.57,1.84-.19,2.76-.24.21-.01.38.18.38.4,0,.3-.24.49-.48.44-1.71-.31-3.25.9-5.17.17-1.63-.62-3.68-.14-5.55-.15-.41,0-.83,0-1.24,0-.36,0-.85.05-.83-.48.02-.52.52-.42.88-.43,1.16,0,2.32,0,3.77,0Z"/>
      <path d="M21.33,19.89c-.25,0-.5,0-.74,0-.28,0-.51-.14-.53-.41-.03-.36.24-.49.56-.49.41,0,.83-.02,1.24,0,.35.01.85-.11.83.46-.02.53-.51.42-.86.45-.16.01-.33,0-.5,0,0,0,0,0,0,0Z"/>
    </g>
  </g>
</svg>