<?xml version="1.0" encoding="UTF-8"?>
<svg id="Layer_1" xmlns="http://www.w3.org/2000/svg" xmlns:xlink="http://www.w3.org/1999/xlink" viewBox="0 0 76 76">
  <defs>
    <style>
      .cls-1 {
        fill: #fff;
      }

      .cls-2 {
        fill: none;
      }

      .cls-3 {
        fill: #a35538;
        stroke: #fff;
        stroke-miterlimit: 10;
      }

      .cls-4 {
        clip-path: url(#clippath);
      }
    </style>
    <clipPath id="clippath">
      <rect class="cls-2" x="22.09" y="26.12" width="31.81" height="23.76"/>
    </clipPath>
  </defs>
  <circle class="cls-3" cx="38" cy="38" r="37.5"/>
  <g class="cls-4">
    <path class="cls-1" d="M27.33,42.25c-.09-.07-.21-.09-.32-.06l-.72.21c-.19.06-.31.26-.25.46.06.19.26.31.46.25l.25-.07v.37c0,.2.16.37.37.37s.37-.16.37-.37v-.86c0-.12-.05-.22-.15-.29"/>
    <path class="cls-1" d="M27.18,33.09c-.1-.07-.23-.08-.34-.04l-.72.29c-.19.08-.28.29-.2.48.08.19.29.28.48.2l.22-.09v.31c0,.2.16.37.37.37s.37-.16.37-.37v-.86c0-.12-.06-.24-.16-.3"/>
    <path class="cls-1" d="M26.56,29.71l.22-.09v.31c0,.2.17.37.37.37s.37-.16.37-.37v-.86c0-.12-.06-.24-.16-.3-.1-.07-.23-.08-.34-.04l-.72.29c-.19.08-.28.29-.2.48.08.19.29.28.48.2"/>
    <path class="cls-1" d="M25.74,33.67c-.1-.07-.23-.08-.34-.04l-.72.29c-.19.08-.28.29-.2.48.08.19.29.28.48.2l.22-.09v.31c0,.2.16.37.37.37s.37-.16.37-.37v-.86c0-.12-.06-.24-.16-.3"/>
    <path class="cls-1" d="M25.12,30.29l.22-.09v.31c0,.2.17.37.37.37s.37-.16.37-.37v-.86c0-.12-.06-.24-.16-.3-.1-.07-.23-.08-.34-.04l-.72.29c-.19.08-.28.29-.2.48.08.19.29.28.48.2"/>
    <path class="cls-1" d="M24.47,43.1h0s0-.01-.01-.02c0,0,0,0,0,0h0s0,0,0,0c-.09-.06-.21-.09-.32-.05l-.72.21c-.09.03-.17.09-.22.18-.05.09-.06.18-.03.28.03.09.09.17.18.22s.18.06.28.03l.25-.07v.37c0,.2.17.37.37.37s.37-.16.37-.37v-.86c0-.11-.05-.2-.13-.28Z"/>
    <path class="cls-1" d="M23.2,30.66c.08.19.29.28.48.2l.22-.09v.31c0,.2.16.37.37.37s.37-.16.37-.37v-.86c0-.12-.06-.24-.16-.3-.1-.07-.23-.08-.34-.04l-.72.29c-.19.08-.28.29-.2.48h0Z"/>
    <path class="cls-1" d="M23.59,39.78l.22-.09v.31c0,.2.17.37.37.37s.37-.16.37-.37v-.86c0-.12-.06-.24-.16-.31-.1-.07-.23-.08-.34-.04l-.72.29c-.19.08-.28.29-.2.48.08.19.29.28.48.2"/>
    <path class="cls-1" d="M25.61,39.79c.2,0,.37-.16.37-.37v-.86c0-.12-.06-.24-.16-.3-.1-.07-.23-.08-.34-.04l-.72.29c-.19.08-.28.29-.2.48.08.19.29.28.48.2l.22-.09v.31c0,.2.16.37.37.37"/>
    <path class="cls-1" d="M27.05,39.22c.2,0,.37-.16.37-.37v-.86c0-.12-.06-.24-.16-.3-.1-.07-.23-.08-.34-.04l-.72.29c-.19.08-.28.29-.2.48.08.19.29.28.48.2l.22-.09v.31c0,.2.16.37.37.37"/>
    <path class="cls-1" d="M25.89,42.67c-.09-.07-.21-.09-.32-.06l-.72.21c-.09.03-.17.09-.22.18-.05.09-.06.18-.03.28.03.09.09.17.18.22.09.05.19.06.28.03l.25-.07v.37c0,.2.17.37.37.37s.37-.16.37-.37v-.86c0-.12-.05-.22-.15-.29"/>
    <path class="cls-1" d="M30.02,38.26v.58c0,.2.16.37.37.37s.37-.16.37-.37v-.57s.01.07.03.1c.03.06.08.11.14.14l.54.17v.58c0,.2.16.37.37.37s.37-.16.37-.37v-.57s.01.07.03.1c.03.06.08.11.14.14l.54.17v.58c0,.2.16.37.37.37s.37-.16.37-.37v-.86c0-.16-.11-.31-.27-.35l-.72-.21c-.09-.03-.19-.02-.28.03-.09.05-.15.12-.17.22,0,0,0,0,0,0v-.11c0-.17-.11-.31-.26-.35l-.72-.21c-.1-.03-.19-.02-.28.03-.09.05-.15.12-.17.22,0,0,0,0,0,0v-.11c0-.16-.11-.31-.26-.35l-.72-.21c-.09-.03-.19-.02-.28.03-.09.05-.15.13-.18.22-.03.09-.02.19.03.28.03.06.08.11.14.14l.54.17Z"/>
    <path class="cls-1" d="M23.52,35.18l.22-.09v.31c0,.2.17.37.37.37s.37-.16.37-.37v-.86c0-.12-.06-.24-.16-.3-.1-.07-.23-.08-.34-.04l-.72.29c-.19.08-.28.29-.2.48.08.19.29.28.48.2"/>
    <path class="cls-1" d="M29.65,29.39l.46.14v.58c0,.2.17.37.37.37s.37-.16.37-.37v-.56s.01.06.03.09c.05.09.12.15.22.18l.46.14v.59c0,.2.17.37.37.37s.37-.17.37-.37v-.56s.01.06.03.09c.05.09.12.15.22.18l.46.14v.59c0,.2.16.37.37.37s.37-.16.37-.37v-.86c0-.16-.11-.3-.26-.35l-.72-.22c-.09-.03-.19-.02-.28.03-.09.05-.15.12-.18.22,0,0,0,0,0,0v-.12c0-.16-.1-.3-.26-.35l-.72-.22c-.09-.03-.19-.02-.28.03-.09.05-.15.12-.18.22,0,0,0,0,0,0v-.12c0-.16-.11-.3-.26-.35l-.72-.22c-.09-.03-.19-.02-.28.03-.09.05-.15.12-.18.21v.04c-.04.08-.03.17,0,.24.04.09.13.15.23.18"/>
    <path class="cls-1" d="M29.54,33.69l.45.13v.58c0,.2.16.37.37.37s.37-.16.37-.37v-.57s.01.07.03.1c.05.08.12.15.22.17l.45.13v.58c0,.2.17.37.37.37s.37-.17.37-.37v-.56c.03.12.12.23.25.27l.45.13v.58c0,.2.16.37.37.37s.37-.16.37-.37v-.86c0-.16-.11-.31-.27-.35l-.72-.21c-.09-.03-.19-.02-.28.03-.08.05-.15.13-.17.22h0s0-.1,0-.1c0-.16-.11-.31-.26-.35l-.72-.21c-.19-.06-.4.06-.45.25h0s0-.1,0-.1c0-.16-.11-.31-.26-.35l-.72-.21c-.19-.06-.4.06-.45.25v.02c-.05.19.06.38.25.44"/>
    <path class="cls-1" d="M53.9,28.71c0-.19-.12-.35-.3-.41l-6.65-2.16s-.06-.01-.09-.01h-.03s-.04,0-.04,0c-.04,0-.08.01-.1.02l-5.88,2.53c-.16.07-.26.22-.26.4v5.81l-1.62-.53s-.06-.01-.08-.01h-.03s-.05,0-.05,0c-.04,0-.07.01-.1.02l-3.22,1.38v-7.03c0-.19-.12-.35-.3-.41l-6.65-2.16s-.06-.01-.08-.01h-.03s-.04,0-.04,0c-.04,0-.07.01-.1.02l-5.88,2.53c-.16.07-.26.22-.26.4v20.72c0,.15.08.29.22.37.05.03.11.05.17.06h.03s30.97,0,30.97,0c.24,0,.43-.19.43-.43v-21.08ZM27.93,49.36h-4.98v-20.01s4.98-2.15,4.98-2.15v22.15ZM33.14,49.36h-2.69v-1.96l2.69.45v1.51ZM34.58,49.36h-.7v-1.83c0-.18-.13-.33-.31-.36l-3.42-.57c-.1-.02-.21.01-.3.08-.08.07-.13.17-.13.28v2.39h-.93v-22.21s5.79,1.88,5.79,1.88v20.34ZM35.44,36.67l2.92-1.26v2.15l-2.92,1.22v-2.11ZM38.36,38.36v2l-2.92,1.22v-2l2.92-1.22ZM38.36,49.36h-2.92v-1.35l2.92-.74v2.08ZM38.36,46.52l-2.92.74v-2.07l2.92-1.05v2.39ZM38.36,43.35l-2.92,1.05v-2.03l2.92-1.22v2.19ZM38.68,34.47h0M41.4,29.35l4.98-2.15v3.8l-4.98,2.08v-3.74ZM39.22,35.35l3.44,1.12v1.97l-3.44-.92v-2.17ZM39.22,38.28l3.44.92v2.03l-3.44-.92v-2.03ZM39.22,41.07l3.44.92v2.11l-3.44-.8v-2.23ZM42.66,49.36h-3.44v-2.13l3.44.56v1.57ZM42.66,47.04l-3.44-.56v-2.43l3.44.8v2.18ZM43.22,35.75l-1.82-.59v-1.27l4.98-2.08v3.52l-2.86,1.19v-.36c0-.19-.12-.35-.3-.41M46.38,49.36h-2.86v-3.01l2.86-.72v3.73ZM46.39,44.88l-2.86.72v-3.83l2.86-1.03v4.14ZM46.39,39.95l-2.86,1.03v-3.67l2.86-1.19v3.83ZM47.25,35.28v-3.56l5.79,1.55v3.56l-5.79-1.55ZM53.04,37.59v3.67l-5.79-1.34v-3.87l5.79,1.55ZM47.24,27.14l5.79,1.88v3.49l-5.79-1.55v-3.82ZM47.25,40.67l5.79,1.34v3.77l-5.79-.94v-4.18ZM51.24,49.36h-1.64v-.99l1.64.18v.8ZM53.04,49.36h-1.07v-1.13c0-.19-.14-.34-.32-.36l-2.37-.27c-.1-.01-.21.02-.29.09-.08.07-.12.17-.12.27v1.4h-1.62v-3.77l5.79.94v2.83Z"/>
    <path class="cls-1" d="M33.48,43l-.72-.18c-.1-.02-.19,0-.28.04-.08.05-.13.12-.16.21v-.08c0-.17-.11-.32-.28-.36l-.72-.18c-.1-.02-.19,0-.28.04-.08.05-.14.13-.16.21v-.08c0-.17-.11-.31-.28-.36l-.72-.18c-.1-.02-.19,0-.28.04-.08.05-.14.13-.17.23-.02.1,0,.19.04.28.05.09.13.14.23.17l.44.11v.57c0,.2.17.37.37.37s.37-.16.37-.37v-.59s.02.07.04.1c.05.08.13.14.23.17l.44.11v.57c0,.2.16.37.37.37s.37-.16.37-.37v-.59s.02.07.04.1c.05.08.13.14.23.17l.44.11v.57c0,.2.16.37.37.37s.37-.17.37-.37v-.86c0-.17-.11-.32-.28-.36"/>
  </g>
</svg>