<?xml version="1.0" encoding="UTF-8"?>
<svg id="Layer_1" xmlns="http://www.w3.org/2000/svg" viewBox="0 0 30 30">
  <path d="M19.14,16.23c-.05.83-.12,1.66-.14,2.49-.07,2,.53,2.89,2.43,3.56,1.5.53,2.98,1.1,4.18,2.18.97.86,1.68,1.89,1.2,3.28-.48,1.4-1.63,1.7-2.98,1.75-2.24.08-4.42-.16-6.48-1.03-1.59-.68-3.06-.76-4.69-.03-2.2,1-4.57,1.19-6.98,1.04-1.12-.07-2.03-.49-2.45-1.51-.44-1.07-.16-2.11.62-2.99,1.05-1.17,2.42-1.83,3.86-2.38,3.11-1.19,3.3-1.48,3.24-4.85,0-.5,0-1-.17-1.61-1.03,2.88-3.73,3.91-5.86,5.54-.84.65-1.85,1.25-2.64.1-.73-1.06.08-1.79.99-2.28,2.99-1.59,4.88-4.03,5.93-7.23.77-2.35,2.51-3.37,4.96-3.25.85.04,1.7-.03,2.55.02,1.65.11,2.89.9,3.68,2.36.13.25.27.5.35.77,1,3.27,2.94,5.77,6,7.36.2.1.37.26.55.4.57.47.94,1.02.49,1.75-.46.75-1.31.98-1.91.5-2.31-1.8-5.49-2.69-6.74-5.94ZM11.24,13.81c.11,1.8.18,3.18.27,4.56.17,2.47-.57,3.65-2.93,4.49-1.39.5-2.77,1-3.87,2.03-.76.71-1.45,1.51-1.03,2.66.41,1.13,1.41,1.38,2.47,1.44,2.36.13,4.59-.41,6.79-1.21,1.96-.71,3.91-1.49,6.03-1.65.6-.04,1.31-.32,1.86.46-1.54.22-3.09-.16-4.54.87,2.55,1.05,4.99,1.68,7.58,1.52,1.05-.07,2.07-.3,2.42-1.48.33-1.13-.26-1.96-1.06-2.67-1.17-1.03-2.59-1.61-4.05-2.06-1.29-.4-2.32-1.17-2.57-2.46-.38-2.03-.15-4.08.18-6.49,1.27,1.61,1.32,3.47,2.61,4.53,1.26,1.04,2.66,1.92,4.01,2.84.57.39,1.22,1.18,1.84.21.54-.86-.39-1.23-.9-1.51-3.04-1.63-4.99-4.1-6.02-7.36-.78-2.47-2.68-3.03-5.06-3.03-2.49,0-4.71.27-5.57,3.04-1.02,3.28-2.98,5.75-6.03,7.35-.1.05-.19.12-.28.19-.41.35-1.1.61-.66,1.32.47.75,1.05.4,1.59.03,2.65-1.8,5.54-3.38,6.37-6.88.03-.14.2-.26.59-.75Z"/>
  <path d="M15.03,7.74c-2.05.01-3.7-1.57-3.72-3.56-.02-2.01,1.6-3.65,3.62-3.67,2.08-.02,3.67,1.51,3.7,3.57.03,2.07-1.52,3.65-3.6,3.67ZM14.93,7.26c1.65.04,3.14-1.39,3.17-3.07.04-1.69-1.37-3.16-3.04-3.2-1.65-.04-3.14,1.4-3.18,3.08-.04,1.67,1.38,3.16,3.05,3.2Z"/>
</svg>