<?xml version="1.0" encoding="UTF-8"?>
<svg id="Layer_1" xmlns="http://www.w3.org/2000/svg" viewBox="0 0 76 76">
  <defs>
    <style>
      .cls-1 {
        fill: #fff;
      }

      .cls-2 {
        fill: none;
      }

      .cls-3 {
        fill: #a35538;
        stroke: #fff;
        stroke-miterlimit: 10;
      }
    </style>
  </defs>
  <circle class="cls-3" cx="38" cy="38" r="37.5"/>
  <g>
    <path class="cls-1" d="M41.3,23.49c-1.86,0-3.37,1.51-3.38,3.38,0,1.42,2.15,4.23,3.38,5.64,1.21-1.41,3.38-4.22,3.38-5.64,0-1.86-1.51-3.37-3.38-3.38M41.3,28.81c-.79,0-1.49-.47-1.79-1.2-.3-.73-.13-1.56.42-2.12.56-.56,1.39-.72,2.12-.42.73.3,1.2,1.01,1.2,1.79,0,1.07-.87,1.94-1.94,1.94"/>
    <path class="cls-1" d="M42.15,26.87c0,1.13-1.7,1.13-1.7,0s1.7-1.13,1.7,0"/>
    <path class="cls-1" d="M40.07,28.65c-.35-.32-.61-.68-.79-1.09-3.94.04-10.6.58-12.23,3.67-.81,1.54-.32,3.45,1.44,5.67,2.3,2.91,3.16,5.58,2.55,7.92-.91,3.52-4.88,5.2-4.92,5.22-.24.1-.38.36-.33.61s.28.44.54.44c.07,0,.14-.01.21-.04.18-.07,4.5-1.9,5.56-5.94.7-2.69-.22-5.68-2.75-8.88-1.47-1.86-1.92-3.37-1.33-4.49,1.36-2.6,7.94-3.12,12.05-3.1"/>
    <path class="cls-1" d="M48.69,52.37c.27.14.6.03.74-.23.77-1.74.83-3.71.18-5.5-1.05-3.06-3.89-5.69-8.45-7.8-4.6-2.13-4.94-3.44-4.88-3.9.17-1.21,3.26-2.07,4.73-2.3h0c.29-.05.49-.33.45-.62-.05-.29-.32-.5-.61-.46-.54.08-5.32.89-5.65,3.23-.23,1.59,1.52,3.2,5.5,5.04,4.26,1.98,6.91,4.38,7.87,7.14.55,1.52.51,3.18-.11,4.67-.14.27-.03.59.24.73"/>
    <path class="cls-1" d="M39.05,51.65c.12,0,.24-.04.34-.12,1.27-1.05,1.69-2.82,1.03-4.33-.06-.14-.16-.25-.29-.3-.14-.06-.29-.06-.42,0-.14.06-.24.16-.3.3-.06.14-.05.29,0,.42.47,1.06.19,2.3-.7,3.05-.18.15-.25.39-.18.61.08.22.28.37.52.37"/>
    <path class="cls-1" d="M38.23,43.13c-.64-.24-1.17-.72-1.49-1.32-.04-.14-.15-.26-.28-.32-.13-.06-.29-.07-.43-.02-.14.05-.25.15-.31.29-.06.14-.07.29-.01.43.47,1.32,2.06,1.95,2.12,1.97h0c.06.02.13.04.2.04.26,0,.49-.19.54-.44.05-.26-.09-.52-.34-.61"/>
    <path class="cls-1" d="M33.72,32.62c.29-.09.45-.4.35-.69-.09-.29-.4-.45-.69-.35-1.94.62-2.11,2.14-1.93,2.85h0c.06.24.28.41.53.41.17,0,.32-.08.43-.21.1-.13.14-.3.11-.47-.04-.18-.17-1.11,1.21-1.55"/>
    <path class="cls-1" d="M33.88,39.72c.22.21.56.21.77,0,.1-.1.16-.24.16-.39,0-.15-.06-.28-.16-.38-.41-.4-.76-.87-1.03-1.38-.06-.14-.16-.25-.3-.3-.14-.06-.29-.06-.43,0-.14.06-.24.17-.29.3-.05.14-.05.29.01.43.33.64.76,1.22,1.27,1.73"/>
    <rect class="cls-2" x="25.74" y="23.49" width="24.52" height="29.02"/>
  </g>
</svg>