<?xml version="1.0" encoding="UTF-8"?>
<svg id="Layer_1" xmlns="http://www.w3.org/2000/svg" viewBox="0 0 30 30">
  <path d="M28.85,29.47c-3.25-2.9-6.49-5.8-9.74-8.7-.11-.1-.18-.17-.02-.29.18-.14.27-.35.38-.59.24.21.47.41.7.62,3.01,2.69,6.02,5.38,9.02,8.06.1.09.18.18.27.28,0,.21.08.5-.02.6s-.39.02-.6.02Z"/>
  <path d="M.79,29.47c-.37-.33-.38-.57-.03-.88,3.17-2.83,6.34-5.67,9.51-8.5.07-.06.14-.12.23-.19.12.24.24.48.45.65.16.13-.03.18-.08.22-.76.69-1.53,1.37-2.3,2.06-2.38,2.13-4.77,4.26-7.15,6.39-.1.09-.19.17-.29.26h-.34Z"/>
  <path d="M29.47,1.13c-.74.74-1.54,1.41-2.32,2.1-2.48,2.22-4.96,4.44-7.44,6.65-.07.06-.14.12-.23.19-.12-.24-.24-.48-.45-.65-.16-.13.03-.17.08-.22.73-.66,1.46-1.31,2.19-1.96,2.42-2.17,4.85-4.33,7.27-6.5.37-.33.56-.33.89.04v.34Z"/>
  <path d="M1.86,14.77c0-2.7,0-5.39,0-8.09,0-.08,0-.15,0-.23,0-.2.08-.35.26-.43.18-.08.35-.06.5.07.95.78,1.91,1.56,2.87,2.34.19.16.2.37.2.59,0,3.44,0,6.88,0,10.32,0,.49,0,.98,0,1.47,0,.27-.09.46-.31.62-.9.65-1.79,1.31-2.69,1.98-.18.14-.37.23-.6.11-.21-.12-.24-.31-.24-.53,0-2.74,0-5.49,0-8.23ZM2.79,7.39v14.83c.66-.49,1.29-.95,1.92-1.41.09-.07.08-.16.08-.25,0-3.78,0-7.56,0-11.34,0-.11,0-.2-.1-.28-.62-.5-1.24-1.01-1.9-1.55Z"/>
  <path d="M28.11,14.76c0,2.7,0,5.41,0,8.11,0,.08,0,.15,0,.23-.02.42-.4.62-.74.37-.97-.7-1.93-1.42-2.89-2.13-.17-.13-.2-.31-.2-.5,0-.82,0-1.64,0-2.46,0-3.11,0-6.22,0-9.33,0-.32.1-.55.35-.75.88-.7,1.76-1.43,2.63-2.15.18-.15.36-.25.59-.14.23.11.26.31.26.55,0,2.73,0,5.47,0,8.2ZM27.18,22.22V7.4c-.64.53-1.25,1.03-1.87,1.53-.1.08-.12.18-.12.3,0,3.78,0,7.56,0,11.34,0,.09,0,.19.08.25.63.46,1.25.92,1.91,1.4Z"/>
  <path d="M11.37,14.96c0-1.44,0-2.89,0-4.33,0-.48.14-.62.62-.62,2,0,4,0,6,0,.48,0,.62.14.62.62,0,2.9,0,5.81,0,8.71,0,.48-.14.62-.62.62-2,0-4,0-6,0-.48,0-.62-.14-.62-.62,0-1.46,0-2.92,0-4.38ZM12.27,14.99c0,1.26,0,2.53,0,3.79,0,.2.03.29.27.29,1.64-.01,3.28,0,4.92,0,.2,0,.25-.05.25-.25,0-2.55,0-5.11,0-7.66,0-.2-.06-.25-.25-.25-1.64,0-3.28,0-4.92,0-.21,0-.27.05-.27.26.01,1.27,0,2.54,0,3.82Z"/>
  <path d="M6.87,14.82c0-1.48,0-2.96,0-4.44,0-.08,0-.17,0-.25.03-.4.41-.59.73-.34.56.43,1.1.89,1.65,1.33.13.11.18.26.18.43,0,2.23,0,4.47,0,6.7,0,.22-.1.37-.28.49-.5.36-.99.72-1.49,1.08-.17.12-.34.21-.55.1-.22-.11-.26-.3-.26-.52,0-1.53,0-3.05,0-4.58ZM7.83,11.12c-.08.14-.05.25-.05.36,0,2.19,0,4.37,0,6.56,0,.17-.09.42.06.49.11.06.27-.16.41-.25.15-.1.3-.18.3-.43-.01-1.99,0-3.98,0-5.96,0-.1.01-.2-.09-.28-.2-.15-.4-.32-.61-.49Z"/>
  <path d="M23.1,14.81c0,1.51,0,3.02,0,4.52,0,.16,0,.32-.1.46-.15.18-.39.23-.61.08-.56-.4-1.11-.81-1.67-1.21-.14-.1-.19-.25-.19-.42,0-2.23,0-4.47,0-6.7,0-.21.09-.36.25-.48.49-.39.98-.79,1.47-1.19.17-.14.35-.26.59-.15.24.11.26.32.26.55,0,1.52,0,3.03,0,4.55ZM22.18,11.09c-.23.18-.39.33-.57.46-.13.09-.17.2-.17.36,0,1.99,0,3.98,0,5.96,0,.09-.03.19.07.25.21.15.42.3.67.48v-7.52Z"/>
  <path d="M14.53,2.02c0-.34,0-.68,0-1.02,0-.3.2-.5.46-.49.25,0,.44.2.44.49,0,.67,0,1.34,0,2.01,0,.18.06.26.23.32,1.26.47,1.94,1.64,1.8,3.06-.03.32-.2.46-.53.46-.42,0-.85,0-1.27,0-.12,0-.21,0-.25.15-.06.2-.22.3-.43.3-.2,0-.35-.11-.4-.3-.04-.15-.13-.15-.25-.15-.42,0-.85,0-1.27,0-.34,0-.5-.15-.54-.48-.17-1.35.55-2.57,1.82-3.04.17-.06.21-.15.2-.31,0-.33,0-.66,0-.99ZM14.98,5.93c.38,0,.75,0,1.13,0,.53,0,.54,0,.39-.53-.18-.67-.84-1.23-1.39-1.29-.84-.08-1.64.76-1.7,1.63-.01.15.04.19.19.19.46,0,.92,0,1.39,0Z"/>
  <path d="M14.99,26.75c-2.11,0-4.22,0-6.34,0-.09,0-.19,0-.28,0-.24-.04-.39-.19-.39-.44,0-.25.15-.4.39-.45.08-.02.17,0,.25,0,4.24,0,8.49,0,12.73,0,.08,0,.17,0,.25,0,.24.04.39.19.39.44,0,.25-.15.4-.39.45-.09.02-.19,0-.28,0-2.11,0-4.22,0-6.34,0Z"/>
  <path d="M10.5,10.09c-.8-.72-1.59-1.42-2.38-2.12C5.67,5.77,3.22,3.58.77,1.39c-.19-.17-.33-.34-.22-.61.14-.33.48-.37.79-.1.68.61,1.36,1.22,2.04,1.83,2.47,2.21,4.94,4.42,7.42,6.63.16.14.27.24.03.41-.17.12-.23.33-.33.54Z"/>
  <path d="M15.02,23.59c1.51,0,3.02,0,4.53,0,.08,0,.17,0,.25,0,.24.05.39.2.39.45,0,.25-.15.4-.39.45-.08.02-.17,0-.25,0-3.04,0-6.07,0-9.11,0-.08,0-.17,0-.25,0-.24-.05-.39-.2-.39-.45,0-.25.15-.4.39-.44.08-.02.17,0,.25,0,1.53,0,3.05,0,4.58,0Z"/>
  <path d="M14.98,22.23c-.64,0-1.28,0-1.92,0-.35,0-.56-.18-.55-.46,0-.27.21-.44.54-.44,1.29,0,2.58,0,3.87,0,.35,0,.56.18.56.46,0,.27-.21.44-.54.44-.65,0-1.3,0-1.95,0Z"/>
  <path d="M3.33,12.47c0-.13,0-.26,0-.4.02-.25.16-.4.41-.42.23-.03.45.14.48.39.02.28.02.57,0,.85-.02.25-.24.41-.47.4-.24-.01-.41-.19-.42-.45,0-.12,0-.24,0-.37h0Z"/>
  <path d="M3.33,18.86c0-.13,0-.26,0-.4.02-.25.17-.4.42-.42.25-.02.43.12.46.36.03.3.03.6,0,.9-.03.24-.21.38-.46.36-.25-.02-.4-.17-.42-.42-.01-.13,0-.26,0-.4Z"/>
  <path d="M26.65,12.47c0,.12,0,.25,0,.37-.02.26-.18.43-.42.45-.23.02-.45-.15-.47-.39-.02-.28-.02-.57,0-.85.02-.25.24-.41.47-.39.24.02.4.19.42.45,0,.12,0,.24,0,.37Z"/>
  <path d="M26.65,18.88c0,.12,0,.25,0,.37-.02.25-.2.44-.43.43-.25,0-.43-.14-.45-.38-.03-.29-.03-.59,0-.87.03-.24.2-.38.45-.38.24,0,.41.18.43.44,0,.13,0,.26,0,.4Z"/>
  <path d="M16.1,15.44c-.08,0-.17.01-.25,0-.24-.04-.39-.19-.4-.44-.01-.23.16-.43.41-.46.15-.01.3,0,.45,0,.29,0,.48.18.49.44,0,.26-.19.45-.5.46-.07,0-.13,0-.2,0,0,0,0,0,0,0Z"/>
</svg>