<?xml version="1.0" encoding="iso-8859-1"?>
<!-- Uploaded to: SVG Repo, www.svgrepo.com, Generator: SVG Repo Mixer Tools -->
<svg fill="#000000" height="800px" width="800px" version="1.1" id="Layer_1" xmlns="http://www.w3.org/2000/svg" xmlns:xlink="http://www.w3.org/1999/xlink" 
	 viewBox="0 0 512 512" xml:space="preserve">
<g transform="translate(0 -1)">
	<g>
		<g>
			<path d="M503.467,457.533h-21.583c8.111-9.059,13.05-21.019,13.05-34.133c0-26.161-19.629-47.745-44.96-50.823
				c1.512-5.65,2.294-11.498,2.294-17.443c0-37.703-30.564-68.267-68.267-68.267c-28.93,0-53.94,18.104-63.768,43.985
				c-8.583-6.29-19.041-9.852-30.099-9.852c-19.774,0-36.92,11.221-45.45,27.636c-9.386-11.647-23.764-19.102-39.884-19.102
				c-10.117,0-19.773,2.964-27.97,8.331c-10.985-15.639-29.014-25.398-48.83-25.398c-32.992,0-59.733,26.741-59.733,59.733
				c-28.273,0-51.2,22.927-51.2,51.2c0,13.115,4.939,25.074,13.05,34.133H8.533c-4.713,0-8.533,3.82-8.533,8.533
				s3.82,8.533,8.533,8.533h59.733h196.267H281.6h162.133h59.733c4.713,0,8.533-3.82,8.533-8.533S508.18,457.533,503.467,457.533z
				 M182.735,457.533l28.099-28.099c3.332-3.333,3.332-8.735,0-12.068c-3.332-3.332-8.735-3.332-12.068,0l-28.099,28.099v-39.132
				c0-4.713-3.82-8.533-8.533-8.533s-8.533,3.82-8.533,8.533v39.132l-28.099-28.099c-3.333-3.332-8.736-3.332-12.068,0
				c-3.332,3.333-3.332,8.735,0,12.068l28.099,28.099H68.267c-18.848,0-34.133-15.286-34.133-34.133
				c0-18.848,15.286-34.133,34.133-34.133c2.394,0,4.874,0.31,7.589,0.925c5.997,1.357,11.417-3.882,10.265-9.922
				c-0.521-2.733-0.788-5.415-0.788-8.069c0-23.567,19.1-42.667,42.667-42.667c16.783,0,31.771,9.805,38.709,24.819
				c2.499,5.408,9.63,6.656,13.816,2.418c6.396-6.474,15.033-10.17,24.274-10.17c18.848,0,34.133,15.286,34.133,34.133
				c0,0.163-0.027,0.435-0.123,1.147c-0.128,0.94-0.178,1.35-0.229,1.931c-0.563,6.492,6.065,11.194,12.006,8.517
				c0.361-0.163,0.726-0.309,1.09-0.459c0.221-0.066,0.442-0.133,0.661-0.218c2.998-1.171,6.016-1.919,9.058-2.225
				c0.131-0.013,0.263-0.021,0.395-0.032c0.372-0.033,0.744-0.063,1.117-0.083c0.54-0.027,1.082-0.044,1.625-0.044
				c18.848,0,34.133,15.286,34.133,34.133c0,0.643-0.021,1.283-0.057,1.92c-0.007,0.133-0.021,0.264-0.03,0.396
				c-0.036,0.528-0.08,1.054-0.14,1.576c-0.01,0.088-0.023,0.176-0.034,0.264c-1.133,9.124-5.962,17.345-13.414,22.97l-0.961,0.845
				l-0.114,0.117c-5.507,3.808-12.183,6.044-19.384,6.044H182.735z M404.601,457.533l28.099-28.099
				c3.332-3.333,3.332-8.735,0-12.068c-3.333-3.332-8.735-3.332-12.068,0l-28.099,28.099v-39.132c0-4.713-3.82-8.533-8.533-8.533
				s-8.533,3.82-8.533,8.533v39.132l-28.099-28.099c-3.332-3.332-8.735-3.332-12.068,0c-3.332,3.333-3.332,8.735,0,12.068
				l28.099,28.099h-60.716c6.593-7.363,11.081-16.643,12.532-26.902c0.024-0.17,0.042-0.342,0.065-0.513
				c0.079-0.601,0.155-1.202,0.213-1.808c0.036-0.375,0.058-0.753,0.086-1.13c0.031-0.427,0.07-0.853,0.091-1.283
				c0.041-0.828,0.063-1.66,0.063-2.496c0-28.273-22.927-51.2-51.2-51.2c-0.731,0-1.461,0.017-2.188,0.05
				c-0.686,0.03-1.369,0.079-2.051,0.137c-0.016,0.001-0.033,0.002-0.049,0.003c-1.422,0.123-2.833,0.31-4.234,0.553
				c-0.007-0.249-0.011-0.497-0.011-0.743c0-18.848,15.286-34.133,34.133-34.133c11.12,0,21.325,5.412,27.737,14.383
				c4.511,6.312,14.423,3.816,15.407-3.88c3.247-25.398,24.908-44.636,50.723-44.636c28.277,0,51.2,22.923,51.2,51.2
				c0,7.833-1.815,15.44-5.255,22.458c-3.018,6.155,2.088,13.177,8.874,12.203c0.769-0.111,0.769-0.111,0.942-0.136
				c2-0.289,2.992-0.391,3.973-0.391c18.848,0,34.133,15.286,34.133,34.133c0,18.848-15.286,34.133-34.133,34.133H404.601z"/>
			<path d="M305.067,201.533h99.2c17.216,0,30.933-15.026,30.933-33.067c0-16.254-11.134-30.06-25.93-32.636
				c-2.784-33.403-22.927-53.764-50.87-53.764c-18.245,0-33.64,6.953-46.094,18.406c-5.435,4.998-9.5,10.007-12.28,14.233
				c-20.144,2.672-35.493,21.155-35.493,43.248C264.533,181.856,282.5,201.533,305.067,201.533z M305.067,131.441
				c3.174,0,6.085-1.761,7.558-4.572c0.358-0.682,1.227-2.121,2.608-4.06c2.367-3.326,5.247-6.666,8.626-9.773
				c9.503-8.739,20.934-13.901,34.542-13.901c20.236,0,34.133,15.625,34.133,44.8c0,4.713,3.821,8.533,8.533,8.533h3.2
				c7.426,0,13.867,7.055,13.867,16s-6.441,16-13.867,16h-99.2c-12.777,0-23.467-11.707-23.467-26.513
				C281.6,143.148,292.289,131.441,305.067,131.441z"/>
			<path d="M93.867,65C112.74,65,128,80.26,128,99.133c0,4.713,3.82,8.533,8.533,8.533s8.533-3.82,8.533-8.533
				c0-23.584,19.083-42.667,42.667-42.667c4.713,0,8.533-3.82,8.533-8.533s-3.82-8.533-8.533-8.533
				c-22.298,0-41.715,12.204-51.977,30.293c-9.261-13.16-24.557-21.76-41.89-21.76c-4.713,0-8.533,3.82-8.533,8.533
				S89.154,65,93.867,65z"/>
		</g>
	</g>
</g>
</svg>