<?xml version="1.0" encoding="UTF-8"?>
<svg id="Layer_1" xmlns="http://www.w3.org/2000/svg" xmlns:xlink="http://www.w3.org/1999/xlink" viewBox="0 0 76 76">
  <defs>
    <style>
      .cls-1 {
        fill: #fff;
        fill-rule: evenodd;
      }

      .cls-2 {
        fill: none;
      }

      .cls-3 {
        fill: #a35538;
        stroke: #fff;
        stroke-miterlimit: 10;
      }

      .cls-4 {
        clip-path: url(#clippath);
      }
    </style>
    <clipPath id="clippath">
      <rect class="cls-2" x="23.96" y="23.77" width="28.07" height="28.46"/>
    </clipPath>
  </defs>
  <circle class="cls-3" cx="38" cy="38" r="37.5"/>
  <g class="cls-4">
    <path class="cls-1" d="M44.15,31.84c-.09-.09-.36-.04-.66.06h0c-.41.14-.71.33-.92.52h0s-2.61,2.61-2.61,2.61c-.1.1-.23.13-.35.11l-6.89-.64-1.06,1.06,5.69,1.2c.31.07.42.45.2.67h0l-3.62,3.61c-.09.09-.2.13-.32.12h-2.4l-.41.41,2.56.78c.13.04.23.14.27.27l.78,2.56.41-.41v-2.44c0-.11.04-.21.12-.28h0s3.62-3.62,3.62-3.62c.22-.22.62-.13.68.23l1.2,5.66,1.06-1.06-.64-6.92c-.01-.12.03-.24.12-.32h0s2.62-2.63,2.62-2.63c.3-.29.76-1.36.56-1.56M38,25.88c6.69,0,12.11,5.43,12.11,12.11s-5.42,12.12-12.11,12.12c-6.69,0-12.12-5.42-12.12-12.11s5.43-12.12,12.12-12.12M46,30c4.42,4.42,4.42,11.58,0,16-4.42,4.42-11.58,4.42-16,0-4.42-4.42-4.42-11.58,0-16,4.42-4.42,11.58-4.42,16,0M38,24.23c7.6,0,13.77,6.16,13.77,13.77s-6.16,13.77-13.77,13.77-13.77-6.16-13.77-13.77,6.16-13.77,13.77-13.77M47.17,28.83c5.06,5.06,5.06,13.27,0,18.34-5.06,5.06-13.27,5.06-18.34,0-5.06-5.06-5.06-13.27,0-18.34,5.06-5.06,13.27-5.06,18.34,0M43.23,31.14c2.33-.79,1.97,1.77.9,2.84l-2.48,2.48.64,6.89c.02.12-.02.26-.11.35l-1.71,1.72h0c-.22.22-.61.11-.67-.2l-1.2-5.69-2.98,2.98v2.4c0,.11-.03.23-.12.32l-.99.99h0c-.21.21-.58.12-.66-.17l-.91-2.99c-.41-.12-3-.86-3.16-1.01-.16-.16-.16-.41,0-.57l.99-.99h0c.07-.07.17-.12.28-.12h2.44l2.98-2.98-5.66-1.2c-.36-.06-.45-.46-.23-.68l1.72-1.72h0c.08-.08.2-.12.32-.11l6.92.64,2.48-2.48h0c.25-.25.74-.54,1.23-.71h0ZM33.63,42.62h0s0,0,0,0Z"/>
  </g>
</svg>