<?xml version="1.0" encoding="UTF-8"?>
<svg id="Layer_1" xmlns="http://www.w3.org/2000/svg" viewBox="0 0 30 30">
  <path d="M15,2.29c3.65,0,7.31,0,10.96,0,1.58,0,2.86.87,3.31,2.31.31,1,.32,2.05,0,3.05-.4,1.25-1.31,1.99-2.6,2.24-.19.04-.24.1-.24.29,0,4.86,0,9.71,0,14.57,0,.16.02.25.21.3.43.13.66.45.68.9.01.26.01.52,0,.78-.02.55-.39.93-.95.98-.1,0-.19,0-.29,0-7.32,0-14.65,0-21.97,0-.28,0-.56-.01-.8-.18-.65-.44-.64-1.96.03-2.38.15-.1.2-.19.2-.36,0-4.87,0-9.73,0-14.6,0-.2-.04-.27-.25-.31-1.67-.32-2.77-1.65-2.77-3.35,0-.56-.05-1.12.09-1.67.39-1.55,1.72-2.57,3.38-2.58,2.59,0,5.19,0,7.78,0,1.08,0,2.16,0,3.24,0ZM14.99,9.94c-3.49,0-6.98,0-10.47,0-.26,0-.34.07-.34.33,0,4.8,0,9.6,0,14.4,0,.28.09.33.34.33,2.21,0,4.41-.01,6.62,0,.27,0,.36-.06.36-.34-.01-1.88,0-3.76,0-5.64,0-1.5,1.02-2.52,2.52-2.53.63,0,1.25,0,1.88,0,1.53.01,2.55,1.04,2.55,2.57,0,1.88,0,3.76,0,5.64,0,.24.06.31.3.31,2.23,0,4.45-.01,6.68,0,.29,0,.34-.09.34-.36,0-4.78,0-9.56,0-14.34,0-.3-.08-.36-.37-.36-3.47.01-6.94,0-10.41,0ZM14.98,2.94h0c-2.51.01-5.01.01-7.52.01-1.24,0-2.49-.02-3.73.01-1.25.03-2.32.99-2.53,2.22-.09.53-.07,1.06-.03,1.59.09,1.4,1.26,2.5,2.66,2.5,7.43,0,14.86,0,22.29,0,1.21,0,2.26-.82,2.57-1.99.17-.65.12-1.32.07-1.98-.03-.36-.15-.7-.34-1-.58-.95-1.44-1.36-2.54-1.35-3.63,0-7.27,0-10.9,0ZM12.15,21.79c0,.98,0,1.97,0,2.95,0,.17.02.26.23.26,1.73,0,3.47,0,5.2,0,.15,0,.22-.04.22-.21,0-1.97.01-3.95-.01-5.92-.01-1-.8-1.72-1.81-1.72-.65,0-1.29,0-1.94,0-1.14,0-1.89.75-1.89,1.91,0,.92,0,1.83,0,2.75ZM15.09,27.05h10.75q.82,0,.82-.83c0-.5-.07-.57-.56-.57-7.26,0-14.51,0-21.77,0q-.81,0-.81.82c0,.52.06.58.58.58,3.66,0,7.32,0,10.98,0Z"/>
  <path d="M10.43,17.48c0,1.39,0,2.77,0,4.16,0,.71-.33,1.04-1.04,1.04-1.09,0-2.18,0-3.27,0-.67,0-1.02-.35-1.02-1.01,0-2.81,0-5.63,0-8.44,0-.65.36-1,1-1,1.11,0,2.22,0,3.32,0,.65,0,.99.35,1,1,0,1.42,0,2.83,0,4.25ZM7.45,17.47c0-1.42,0-2.83,0-4.25,0-.26-.08-.33-.33-.31-.34.02-.67.01-1.01,0-.24,0-.35.08-.35.33,0,2.82,0,5.65,0,8.47,0,.24.1.33.33.33.36,0,.71-.02,1.07,0,.24.01.29-.08.29-.3,0-1.43,0-2.85,0-4.28ZM8.1,17.46c0,1.44,0,2.87,0,4.31,0,.18.01.29.24.28.37-.02.75,0,1.13,0,.22,0,.31-.1.31-.32,0-2.83,0-5.67,0-8.5,0-.22-.09-.32-.31-.31-.37,0-.73.01-1.1,0-.22-.01-.27.06-.27.28,0,1.43,0,2.85,0,4.28Z"/>
  <path d="M19.53,17.45c0-1.4,0-2.79,0-4.19,0-.69.34-1.03,1.03-1.03,1.09,0,2.18,0,3.27,0,.68,0,1.03.35,1.03,1.03,0,2.79,0,5.59,0,8.38,0,.71-.34,1.04-1.05,1.04-1.08,0-2.16,0-3.24,0-.71,0-1.04-.33-1.04-1.05,0-1.4,0-2.79,0-4.19ZM22.51,17.47c0,1.44,0,2.87,0,4.31,0,.2.05.28.26.27.35-.01.69,0,1.04,0,.34,0,.38-.05.38-.39,0-.98,0-1.97,0-2.95,0-1.8,0-3.6,0-5.41,0-.26-.06-.41-.35-.39-.34.02-.68.02-1.01,0-.25-.02-.33.05-.32.31.01,1.42,0,2.83,0,4.25ZM21.86,17.49c0-1.44,0-2.87,0-4.31,0-.21-.05-.29-.27-.28-.36.02-.71.01-1.07,0-.25,0-.34.09-.34.34,0,2.81,0,5.63,0,8.44,0,.27.12.36.37.35.35,0,.69-.01,1.04,0,.22.01.27-.06.27-.28,0-1.43,0-2.85,0-4.28Z"/>
</svg>