<?xml version="1.0" encoding="UTF-8"?>
<svg id="Layer_1" xmlns="http://www.w3.org/2000/svg" viewBox="0 0 30 30">
  <g id="uLqF9r">
    <path d="M13.82,11.55c0-2.18.03-4.27-.02-6.36-.02-.74.24-.96.96-.95,3.14.03,6.28.03,9.43,0,.78,0,1,.24,1,1.02-.03,6.18,0,12.36-.04,18.54,0,.91.2,1.26,1.14,1.14.69-.08,1.4-.04,2.09,0,.41.02,1.1-.25,1.12.38.03.68-.68.41-1.07.42-1.47.03-2.93.01-4.4.01-7.3,0-14.59,0-21.89,0-.21,0-.42.03-.63,0-.37-.06-1.01.23-1.02-.38,0-.68.67-.42,1.07-.44.8-.04,1.61-.06,2.41,0,.69.05.88-.19.87-.87-.04-2.65,0-5.31-.03-7.96,0-.63.2-1.03.69-1.39,1.77-1.3,3.53-2.61,5.26-3.97.62-.48,1.08-.59,1.7-.02.34.32.68.7,1.34.83ZM24.53,14.95c0-3.04-.02-6.07.01-9.11,0-.69-.12-.99-.9-.98-2.79.04-5.58.03-8.37,0-.65,0-.83.21-.82.84.04,1.88.05,3.77,0,5.65-.02.68.21,1.08.76,1.45.87.58,1.67,1.26,2.52,1.86.54.37.75.81.74,1.48-.04,2.65,0,5.3-.03,7.96,0,.65.18.84.82.82,1.46-.05,2.93-.05,4.4,0,.67.02.89-.17.88-.87-.04-3.04-.02-6.07-.02-9.11ZM13.82,18.71c0-1.43-.11-2.87.03-4.29.15-1.45-.38-2.34-1.59-3.05-.52-.3-.79-.33-1.25.03-1.65,1.28-3.33,2.54-5.01,3.78-.38.28-.53.57-.53,1.04.02,2.65.03,5.31,0,7.96,0,.61.2.76.78.75,2.27-.03,4.54-.03,6.81,0,.59,0,.79-.17.78-.77-.03-1.82-.01-3.63-.01-5.45ZM14.47,13.07c0,3.91-.15,7.61.09,11.28.08,1.22,1.61.3,2.44.54.48.14.84,0,.83-.68-.04-2.69-.02-5.37,0-8.06,0-.37-.07-.65-.4-.89-.93-.66-1.84-1.37-2.95-2.2Z"/>
  </g>
</svg>