<?xml version="1.0" encoding="UTF-8"?>
<svg id="Layer_1" xmlns="http://www.w3.org/2000/svg" viewBox="0 0 30 30">
  <g id="gkeG4p">
    <g>
      <path d="M14.88,4.06c-.31,1.31-.54,2.56-.95,3.75-.92,2.66-2.15,5.13-4.43,6.91-.54.42-1.1.82-1.75,1.04-.6.2-.71.43-.38,1.02.84,1.5,1.49,3.09,1.75,4.81.17,1.09.15,2.17-.36,3.2-.29.59-.69.91-1.42.82-1-.13-2.01-.18-3.02-.19-.65,0-.84-.28-.84-.9.02-2.67,0-5.35,0-8.02,0-.43.03-.83-.35-1.19-.34-.32-.32-.85,0-1.2.35-.37.35-.77.35-1.2,0-2.67,0-5.35,0-8.02,0-.43.02-.72-.56-.86-.94-.22-1.42-1.08-1.28-2,.13-.88.88-1.5,1.85-1.5,7.64,0,15.28,0,22.92,0,1.02,0,1.78.63,1.91,1.55.13.89-.36,1.68-1.34,1.97-.45.14-.51.34-.51.74.01,2.81,0,5.62,0,8.43.77,1.16.02,2.32,0,3.48-.03,2.59-.03,5.18,0,7.78,0,.71-.23.96-.94.96-1.01,0-2.02.07-3.02.19-.7.09-1.08-.24-1.35-.8-.66-1.39-.49-2.81-.15-4.24.34-1.41.94-2.72,1.6-4.01.12-.24.34-.46-.08-.63-3.27-1.33-4.95-4.04-6.19-7.12-.54-1.34-.92-2.73-1.17-4.16-.03-.19-.04-.38-.34-.6ZM24.44,14.16c-.29-.38-.55-.69-.78-1.02-1.08-1.52-1.8-3.17-1.88-5.06-.01-.31-.14-.76.31-.81.48-.05.4.42.43.72.15,2.06,1.01,3.82,2.32,5.38.15.18.26.44.58.35.32-.09.29-.34.29-.59,0-2.84,0-5.68,0-8.51,0-.38-.1-.52-.51-.52-2.95.01-5.89.01-8.84,0-.43,0-.48.14-.4.53.45,2.17,1.1,4.27,2.21,6.2,1.01,1.76,2.29,3.26,4.16,4.15.23.11.48.49.82.02.34-.47-.02-.61-.25-.84-1.6-1.54-3.03-3.21-3.98-5.24-.43-.92-.71-1.88-.74-2.91,0-.26,0-.53.32-.57.37-.04.42.26.46.54.06.4.07.82.18,1.21.82,2.94,2.8,5.06,5.01,7.01.02.02.1-.02.28-.05ZM5.6,14.16c.31.16.43-.09.57-.22,1.42-1.28,2.69-2.71,3.66-4.37.62-1.07,1.08-2.2,1.16-3.45.02-.3-.02-.69.39-.66.44.03.4.43.37.77-.09.9-.3,1.76-.67,2.59-.97,2.15-2.46,3.9-4.16,5.5-.23.22-.29.36-.1.67.2.33.37.21.6.11.68-.3,1.31-.68,1.86-1.17,2.82-2.5,3.99-5.82,4.7-9.37.08-.42-.1-.44-.42-.44-2.92,0-5.83,0-8.75,0-.38,0-.52.11-.52.51.01,2.86,0,5.72,0,8.59,0,.21-.04.45.25.54.23.07.35-.11.47-.25,1.34-1.57,2.28-3.31,2.39-5.42.02-.35-.04-.83.45-.79.48.04.38.52.35.86-.17,1.98-.92,3.73-2.13,5.3-.17.22-.45.39-.46.72ZM14.92,3.32c3.82,0,7.63,0,11.45,0,.76,0,1.22-.41,1.22-1.02,0-.6-.47-.99-1.23-1.02-.16,0-.33,0-.49,0-5.29,0-10.58,0-15.87,0-2.13,0-4.25,0-6.38.01-1,0-1.51.81-1.05,1.57.29.48.75.47,1.22.47,3.71,0,7.42,0,11.12,0ZM23.66,16.53c-.95,1.59-1.73,3.25-2.04,5.1-.15.91-.16,1.79.19,2.65.12.3.24.62.68.59.92-.08,1.85-.14,2.77-.21.25-.02.47-.05.47-.41-.01-2.71,0-5.43,0-8.14-.38.79-.4,1.6-.2,2.43.07.27.12.58-.26.65-.38.08-.46-.23-.51-.5-.11-.59-.23-1.17-.18-1.81-.24.12-.25.34-.29.5-.28,1.14-.59,2.28-.06,3.43.11.24.08.52-.21.61-.25.08-.39-.13-.49-.34-.17-.35-.27-.71-.3-1.09-.1-1.18.13-2.32.42-3.47ZM6.26,16.58c.08.31.18.61.25.92.24,1.15.43,2.31-.05,3.45-.1.25-.22.57-.56.46-.4-.13-.26-.43-.15-.74.49-1.42.14-2.77-.4-4.1.05.63.03,1.25-.08,1.87-.06.33-.02.82-.54.72-.48-.09-.27-.5-.22-.81.12-.72.17-1.44-.17-2.12-.06,2.64-.05,5.28-.07,7.92,0,.36.14.49.47.5.68.04,1.36.07,2.04.13,1.19.09,1.45-.1,1.59-1.34.29-2.58-.86-4.74-2.11-6.87ZM6.17,15.45c-.03-.06-.06-.16-.11-.19-.63-.36-1.31-.64-2.01-.83-.15-.04-.26.05-.3.2-.03.15.06.25.19.31.6.25,1.19.51,1.79.75.21.09.36,0,.43-.24ZM26.2,14.69c0-.22-.16-.31-.33-.26-.68.2-1.33.46-1.93.83-.2.12-.2.32.05.44.17.08,2.15-.76,2.2-.93,0-.03,0-.05,0-.08Z"/>
      <path d="M17.99,29.49c-.76,0-1.53-.01-2.29,0-.46.01-.63-.18-.63-.63,0-1.03-.14-2.1,1.05-2.68.43-.21-.02-.47-.09-.67-.3-.87-.23-1.68.42-2.35.62-.64,1.39-.82,2.25-.55,1.23.39,1.84,1.75,1.26,2.98-.19.41-.16.55.22.79.72.45,1.09,2,.77,2.82-.12.3-.36.29-.61.29-.79,0-1.58,0-2.37,0ZM18.02,26.86s0,0,0,0c-.46,0-.93-.06-1.39.01-.8.12-.79.76-.79,1.38,0,.67.5.44.82.45.9.03,1.8.01,2.69,0,.9,0,1.03-.16.85-1.04-.1-.48-.38-.79-.88-.82-.43-.03-.87,0-1.31,0ZM19.45,24.66c.01-.74-.64-1.38-1.41-1.39-.76,0-1.41.63-1.41,1.39,0,.77.64,1.4,1.4,1.39.76,0,1.41-.64,1.42-1.39Z"/>
      <path d="M11.8,29.49c-.76,0-1.53,0-2.29,0-.3,0-.52-.05-.62-.39-.3-1.04.07-2.26,1-2.87.43-.28.1-.45.01-.64-.39-.89-.28-1.71.38-2.42.64-.69,1.44-.85,2.32-.55,1.2.41,1.76,1.73,1.21,2.94-.18.4-.17.56.22.81.71.46,1.07,2,.75,2.82-.12.3-.36.29-.6.29-.79,0-1.58,0-2.37,0ZM11.79,28.72c.6,0,1.2,0,1.8,0,.18,0,.37.02.47-.22.28-.69-.24-1.6-.99-1.63-.82-.03-1.63-.03-2.45,0-.71.03-.94.44-.95,1.32-.01.79.54.5.9.53.41.04.82,0,1.22,0ZM13.27,24.66c.01-.74-.63-1.38-1.4-1.4-.79-.01-1.39.58-1.39,1.38,0,.81.58,1.4,1.37,1.4.77,0,1.41-.63,1.42-1.39Z"/>
      <path d="M14.84,21.47c-1.09,0-2.18,0-3.27,0-.32,0-.67-.02-.67-.41,0-.37.36-.41.68-.41,2.23,0,4.46,0,6.69,0,.3,0,.68-.02.7.38.03.48-.39.43-.71.43-1.14,0-2.29,0-3.43,0Z"/>
      <path d="M14.95,18.85c.62,0,1.25,0,1.87,0,.32,0,.73-.07.72.42,0,.42-.37.39-.67.39-1.3,0-2.6,0-3.91,0-.31,0-.66-.01-.65-.43.01-.42.38-.38.68-.38.65,0,1.3,0,1.95,0Z"/>
    </g>
  </g>
</svg>