<?xml version="1.0" encoding="UTF-8"?>
<svg id="Layer_1" xmlns="http://www.w3.org/2000/svg" viewBox="0 0 30 30">
  <g id="g0qvub">
    <g>
      <path d="M15.08,1.26c2.12.89,2.94,2.81,3.73,4.74.29.72.25.73.94.41,1.54-.72,3.16-1.12,4.87-1.07.94.02,1.52.6,1.54,1.53.11,4.81-2.8,9.29-8.54,10.09-2.83.39-5.75.44-8.4-1.06-3.49-1.97-5.38-4.91-5.36-8.98,0-1.01.59-1.56,1.61-1.59,1.78-.04,3.45.38,5.03,1.18.41.21.57.16.7-.29.32-1.12.85-2.15,1.55-3.08.59-.79,1.19-1.58,2.19-1.89h.13ZM11.97,9.06c.08,2.4,1.03,4.48,2.74,6.24.2.21.36.31.62.05,1.79-1.82,2.84-4,2.78-6.55-.05-2.25-1-4.22-2.57-5.87-.34-.36-.61-.42-.98-.02-1.59,1.72-2.51,3.7-2.59,6.13ZM16.71,15.72c.43.21.75.04,1.07-.02,4.71-.88,7-4.42,7.2-8.4.03-.63-.23-.82-.82-.77-1.52.13-2.97.49-4.33,1.21-.39.21-.54.46-.5.9.09,1.17-.15,2.3-.51,3.4-.44,1.35-1.17,2.54-2.11,3.69ZM13.28,15.82c.05-.32-.18-.45-.31-.62-1.49-2.02-2.36-4.24-2.19-6.78.02-.29-.12-.42-.33-.54-1.42-.82-2.96-1.24-4.6-1.35-.61-.04-.82.19-.8.8.14,3.42,2.18,6.48,5.56,7.87.85.35,1.73.6,2.67.63Z"/>
      <path d="M29.5,19.12c0,2.36-1.25,4.31-3.13,5.91-2.11,1.81-4.62,2.82-7.32,3.32-4,.74-7.94.48-11.73-1.11-2.31-.97-4.35-2.33-5.68-4.52-1.54-2.54-1.51-5.13.01-7.68.35-.59.89-.61,1.18-.09.17.3,0,.52-.15.75-.52.86-.85,1.77-.92,2.78-.13,1.91.61,3.49,1.89,4.84,1.89,1.99,4.27,3.09,6.9,3.67,4.13.91,8.18.68,12.07-1.06,1.95-.87,3.66-2.09,4.77-3.97,1.2-2.02,1.18-4.06.04-6.1-.03-.06-.06-.11-.1-.16-.27-.39-.3-.74.15-1,.45-.26.7.06.91.39.7,1.05,1.07,2.36,1.08,4.04Z"/>
      <path d="M15.32,24.1c-2.59,0-4.77-.34-6.83-1.27-1.05-.47-2-1.08-2.69-2.03-.38-.52-.62-1.1-.66-1.74-.02-.37.1-.67.53-.71.41-.04.62.15.68.56.14,1.05.82,1.72,1.66,2.26,1.44.93,3.06,1.35,4.73,1.58,2.57.35,5.11.14,7.57-.73.73-.26,1.43-.61,2.06-1.07.7-.52,1.22-1.16,1.33-2.05.05-.43.29-.58.69-.54.39.04.53.32.51.67-.07,1.13-.65,1.97-1.49,2.67-1.31,1.09-2.86,1.65-4.49,2.01-1.29.29-2.61.45-3.59.4Z"/>
    </g>
  </g>
</svg>