<?xml version="1.0" encoding="UTF-8"?>
<svg id="Layer_1" xmlns="http://www.w3.org/2000/svg" viewBox="0 0 76 76">
  <defs>
    <style>
      .cls-1 {
        fill: #fff;
      }

      .cls-2 {
        fill: none;
      }

      .cls-3 {
        fill: #a35538;
        stroke: #fff;
        stroke-miterlimit: 10;
      }
    </style>
  </defs>
  <circle class="cls-3" cx="38" cy="38" r="37.5"/>
  <g>
    <path class="cls-1" d="M38.63,36.67c-.89,0-1.69.54-2.03,1.36-.34.82-.15,1.77.48,2.4.63.63,1.58.82,2.4.47.82-.34,1.36-1.14,1.36-2.03,0-1.22-.99-2.2-2.2-2.2M38.63,40.19c-.53,0-1.01-.32-1.22-.81-.2-.49-.09-1.06.29-1.44.38-.38.94-.49,1.44-.29.49.2.81.69.81,1.22,0,.73-.59,1.32-1.32,1.32"/>
    <path class="cls-1" d="M33.46,36.56c.2-.46.46-.89.78-1.27.24-.29.51-.56.8-.8.38-.32.81-.58,1.27-.78.16-.07.26-.23.26-.4v-8.13c0-.24-.2-.44-.44-.44s-.44.2-.44.44v7.85c-.43.21-.84.48-1.21.79-.34.28-.64.58-.92.92-.31.37-.57.78-.79,1.21h-5.62c-.24,0-.44.2-.44.44s.2.44.44.44h5.9c.17,0,.33-.1.4-.26"/>
    <path class="cls-1" d="M41.12,24.73c-.24,0-.44.2-.44.44v8.13c0,.18.1.33.26.4.46.2.89.47,1.28.79.29.24.56.51.8.8.32.38.58.81.78,1.27.07.16.23.26.4.26h5.89c.24,0,.44-.2.44-.44s-.2-.44-.44-.44h-5.61c-.21-.43-.48-.84-.79-1.21-.27-.34-.58-.65-.92-.92-.37-.31-.78-.58-1.22-.79v-7.85c0-.24-.2-.44-.44-.44Z"/>
    <path class="cls-1" d="M43.36,24.73c-.24,0-.44.2-.44.44v6.11c0,.15.08.29.21.37,1.1.69,2.04,1.62,2.72,2.72.08.13.22.21.37.21h3.88c.24,0,.44-.2.44-.44s-.2-.44-.44-.44h-1.35v-2.04h.74,0c.55,0,1-.45,1-1v-4.71c0-.55-.45-1-1-1h-2.36c-.55,0-1,.45-1,1v4.71c0,.55.45,1,1,1.01h.74v2.04h-1.41c-.7-1.06-1.61-1.97-2.67-2.67v-5.87c0-.24-.2-.44-.44-.44h0ZM47.02,30.66v-4.71c0-.07.05-.12.12-.12h2.36s.06.01.09.04c.02.02.04.05.04.09v4.71c0,.07-.06.12-.12.12h-2.36c-.07,0-.12-.05-.12-.12h0Z"/>
    <path class="cls-1" d="M34.13,46.1c-1.1-.69-2.03-1.62-2.72-2.72-.08-.13-.22-.21-.37-.21h-3.88c-.24,0-.44.2-.44.44s.2.44.44.44h3.63c.7,1.06,1.61,1.96,2.67,2.67v4.46c0,.24.2.44.44.44s.44-.2.44-.44v-4.71c0-.15-.08-.29-.21-.37"/>
    <path class="cls-1" d="M50.1,43.16h-3.88c-.15,0-.29.08-.37.21-.69,1.1-1.62,2.04-2.72,2.73-.13.08-.21.22-.21.37v4.71c0,.24.2.44.44.44s.44-.2.44-.44v-4.46c1.06-.7,1.97-1.61,2.67-2.67h3.64c.24,0,.44-.2.44-.44s-.2-.44-.44-.44"/>
    <path class="cls-1" d="M36.31,44.05c-.81-.36-1.51-.91-2.07-1.59-.32-.38-.58-.81-.78-1.27-.07-.16-.23-.26-.4-.26h-5.9c-.24,0-.44.2-.44.44s.2.44.44.44h5.62c.21.43.48.84.78,1.21.28.34.59.65.93.93.37.3.78.57,1.21.78v6.45c0,.24.2.44.44.44s.44-.2.44-.44v-6.73c0-.17-.1-.33-.26-.4"/>
    <path class="cls-1" d="M50.1,40.93h-5.89c-.17,0-.33.1-.4.26-.2.46-.47.89-.79,1.27-.24.29-.51.56-.81.81-.38.32-.81.58-1.27.78-.16.07-.26.23-.26.4v6.73c0,.24.2.44.44.44s.44-.2.44-.44v-6.45c.43-.21.84-.48,1.21-.78.34-.28.65-.59.93-.92.31-.37.57-.78.79-1.21h5.61c.24,0,.44-.2.44-.44s-.2-.44-.44-.44h0Z"/>
    <path class="cls-1" d="M39.07,25.17c0-.24-.2-.44-.44-.44s-.44.2-.44.44v3.56h0c0,.24.2.44.44.44s.44-.2.44-.44v-3.56Z"/>
    <path class="cls-1" d="M38.63,30.34c-.24,0-.44.2-.44.44v1.33c0,.24.2.44.44.44s.44-.2.44-.44v-1.33c0-.12-.05-.23-.13-.31-.08-.08-.19-.13-.31-.13"/>
    <path class="cls-1" d="M38.63,45.2c-.24,0-.44.2-.44.44v1.33h0c0,.24.2.44.44.44s.44-.2.44-.44v-1.33c0-.12-.05-.23-.13-.31-.08-.08-.19-.13-.31-.13"/>
    <path class="cls-1" d="M38.63,48.57c-.24,0-.44.2-.44.44v2.16c0,.24.2.44.44.44s.44-.2.44-.44v-2.16c0-.12-.05-.23-.13-.31s-.19-.13-.31-.13"/>
    <path class="cls-1" d="M50.1,38.43h-1.33c-.24,0-.44.2-.44.44s.2.44.44.44h1.33c.24,0,.44-.2.44-.44s-.2-.44-.44-.44"/>
    <path class="cls-1" d="M45.39,38.43c-.24,0-.44.2-.44.44s.2.44.44.44h1.33c.24,0,.44-.2.44-.44s-.2-.44-.44-.44h-1.33Z"/>
    <path class="cls-1" d="M30.53,38.43c-.24,0-.44.2-.44.44s.2.44.44.44h1.33,0c.24,0,.44-.2.44-.44s-.2-.44-.44-.44h-1.33Z"/>
    <path class="cls-1" d="M27.16,39.31h1.33c.24,0,.44-.2.44-.44s-.2-.44-.44-.44h-1.33c-.24,0-.44.2-.44.44s.2.44.44.44"/>
    <path class="cls-1" d="M48.31,27.93c.31,0,.59-.19.71-.47.12-.29.05-.62-.17-.84s-.55-.29-.84-.17c-.29.12-.47.4-.47.71,0,.42.35.77.77.77M48.31,27.05c.06,0,.11.05.11.11,0,.12-.22.12-.22,0,0-.06.05-.11.11-.11"/>
    <path class="cls-1" d="M48.31,30.23c.31,0,.59-.19.71-.47.12-.29.05-.62-.17-.84-.22-.22-.55-.29-.84-.17-.29.12-.47.4-.47.71,0,.42.35.77.77.77M48.31,29.34c.06,0,.11.05.11.11,0,.12-.22.12-.22,0,0-.06.05-.11.11-.11"/>
    <path class="cls-1" d="M27.99,33.71h-.83c-.24,0-.44.2-.44.44s.2.44.44.44h3.88c.15,0,.29-.08.37-.21.69-1.1,1.62-2.03,2.72-2.72.13-.08.21-.22.21-.37v-6.11c0-.24-.2-.44-.44-.44s-.44.2-.44.44v5.87h0c-1.06.7-1.96,1.61-2.67,2.66h-1.93v-1.51c1.06-.16,1.95-.9,2.3-1.92.35-1.02.1-2.15-.64-2.93.09-.24.14-.5.14-.75-.02-1.23-1.02-2.21-2.24-2.21s-2.22.98-2.24,2.21c0,.26.05.51.14.75-.74.78-.98,1.91-.63,2.93.35,1.02,1.24,1.76,2.3,1.92v1.51ZM26.41,29.34c0-.6.26-1.17.72-1.55.16-.13.21-.36.11-.55-.11-.2-.17-.42-.18-.65.01-.74.62-1.34,1.36-1.34s1.35.59,1.36,1.34c0,.23-.06.45-.17.65-.1.18-.06.41.11.55.59.49.85,1.28.67,2.02-.18.75-.77,1.32-1.52,1.49v-1.76c0-.24-.2-.44-.44-.44s-.44.2-.44.44v1.76c-.92-.21-1.57-1.02-1.58-1.96"/>
    <rect class="cls-2" x="25.46" y="24.38" width="24.97" height="26.98"/>
  </g>
</svg>