<?xml version="1.0" encoding="UTF-8"?><svg id="Layer_1" xmlns="http://www.w3.org/2000/svg" viewBox="0 0 128 133.43"><path d="m114,65c-1.1,0-2-.9-2-2v-2c0-1.1.9-2,2-2s2,.9,2,2v2c0,1.1-.9,2-2,2Z"/><path d="m114,55c-1.1,0-2-.9-2-2v-4c0-1.1.9-2,2-2s2,.9,2,2v4c0,1.1-.9,2-2,2Z"/><path d="m114,126H14c-1.1,0-2-.9-2-2V49c0-1.1.9-2,2-2s2,.9,2,2v73h96v-51c0-1.1.9-2,2-2s2,.9,2,2v53c0,1.1-.9,2-2,2Z"/><path d="m121.11,50h-34.46c-1.1,0-2-.9-2-2s.9-2,2-2h34.46c.49-.01.88-.4.89-.89v-8.22c-.01-.49-.4-.88-.89-.89h-30.11c-1.1,0-2-.9-2-2s.9-2,2-2h30.11c2.7,0,4.89,2.19,4.89,4.89v8.22c0,2.7-2.19,4.89-4.89,4.89Z"/><path d="m43.48,50H6.89c-2.7,0-4.89-2.19-4.89-4.89v-8.22c0-2.7,2.19-4.89,4.89-4.89h33.35c1.1,0,2,.9,2,2s-.9,2-2,2H6.89c-.49.01-.88.4-.89.89v8.22c.01.49.4.88.89.89h36.59c1.1,0,2,.9,2,2s-.9,2-2,2Z"/><path d="m64.5,48.88l-18.23,4.21c-.66-1.07-1.14-2.24-1.42-3.47l16.51-3.81c.9,1.16,1.96,2.2,3.14,3.07Z"/><path d="m55.48,19.23c.05.28.15.55.28.8l-11.14,2.57c0-.28-.02-.57-.09-.84l-.75-2.76,11.16-2.57.54,2.8Z"/><path d="m56.11,60.6c-4.71-.01-9.07-2.45-11.54-6.46-.78-1.26-1.34-2.63-1.67-4.07l-3.79-16.42c-.78-3.85.44-7.83,3.25-10.58.16-.16.25-.37.26-.59,0-.08,0-.15,0-.23l-2.82-10.34c-1.04-4.29,1.6-8.62,5.9-9.66.03,0,.07-.02.1-.02,4.3-1.01,8.61,1.66,9.61,5.97,0,.01,0,.02,0,.03l2,10.6c.02.09.05.18.09.26.12.16.28.28.46.35,2.06.73,3.89,1.99,5.3,3.65.75.81.69,2.08-.12,2.83-.81.75-2.08.69-2.83-.12-.04-.04-.08-.09-.11-.14-.97-1.12-2.21-1.97-3.6-2.46-1.62-.56-2.82-1.96-3.12-3.65l-2-10.5c-.51-2.15-2.67-3.48-4.82-2.97-1.03.25-1.93.89-2.48,1.8-.56.89-.74,1.97-.51,3l2.78,10.3c.12.47.17.95.16,1.43-.06,1.2-.56,2.33-1.39,3.19-1.87,1.79-2.71,4.41-2.23,6.95l3.8,16.42c1.17,5.15,6.3,8.37,11.45,7.19,3.12-.71,5.68-2.94,6.81-5.93.39-1.03,1.55-1.55,2.58-1.16,1.03.39,1.55,1.55,1.16,2.58-1.6,4.23-5.21,7.38-9.62,8.4-1.01.23-2.04.35-3.07.35Z"/><path d="m74,54c-9.94,0-18-8.06-18-18s8.06-18,18-18,18,8.06,18,18-8.06,18-18,18Zm0-32c-7.73,0-14,6.27-14,14s6.27,14,14,14,14-6.27,14-14-6.27-14-14-14Z"/><circle cx="83" cy="32" r="2"/><circle cx="76" cy="35" r="2"/><circle cx="77" cy="28" r="2"/><path d="m78,126h-28c-1.1,0-2-.9-2-2v-34c0-1.1.9-2,2-2s2,.9,2,2v32h24v-46h-24v6c0,1.1-.9,2-2,2s-2-.9-2-2v-8c0-1.1.9-2,2-2h28c1.1,0,2,.9,2,2v50c0,1.1-.9,2-2,2Z"/><path d="m64,124c-1.1,0-2-.9-2-2v-46c0-1.1.9-2,2-2s2,.9,2,2v46c0,1.1-.9,2-2,2Z"/><path d="m104,99h-16c-1.1,0-2-.9-2-2v-20c0-1.1.9-2,2-2h16c1.1,0,2,.9,2,2v20c0,1.1-.9,2-2,2Zm-14-4h12v-16h-12v16Z"/><path d="m40,99h-16c-1.1,0-2-.9-2-2v-20c0-1.1.9-2,2-2h16c1.1,0,2,.9,2,2v20c0,1.1-.9,2-2,2Zm-14-4h12v-16h-12v16Z"/></svg>