<?xml version="1.0" encoding="UTF-8"?>
<svg id="Layer_1" xmlns="http://www.w3.org/2000/svg" viewBox="0 0 30 30">
  <path d="M20.91,29.26c-.29-.08-.4-.08-.41-.11-.47-1.4-1.6-1.3-2.75-1.28-2.15.04-4.29.04-6.44,0-.71-.01-1.23.09-1.49.84-.07.21-.18.62-.52.47-.35-.17-.07-.47.04-.69.45-.9.91-1.79,1.39-2.67.25-.46.18-.58-.37-.66-2.39-.35-3.64-1.91-3.71-4.34-.12-4.44.16-8.84.86-13.22.29-1.82,1.46-2.97,3.32-2.99,2.75-.03,5.5-.03,8.25,0,1.91.02,3.04,1.05,3.35,2.93.7,4.28.95,8.57.99,12.91.02,2.49-1.85,4.8-4.35,4.78.4,1.41,1.44,2.52,1.82,4.05ZM14.98,24.64c1.47,0,2.95.02,4.42,0,1.65-.02,3.35-1.54,3.41-3.11.19-4.73-.07-9.44-.9-14.1-.26-1.47-1.25-2.28-2.74-2.29-2.78-.02-5.56-.02-8.34,0-1.52.01-2.48.89-2.73,2.41-.74,4.47-1.1,8.97-.92,13.5.08,2.04,1.61,3.57,3.68,3.58,1.37,0,2.75,0,4.12,0ZM15.07,27.35h0c1.24,0,2.48.01,3.71,0,.2,0,.55.13.54-.23,0-.2-.13-.48-.39-.54-.25-.06-.53-.06-.79-.06-1.87,0-3.75,0-5.62,0-.4,0-.8,0-1.2,0-.38,0-.58.28-.58.57,0,.43.4.25.62.25,1.24.02,2.48,0,3.71,0ZM14.99,26.02c1.04,0,2.07,0,3.11,0,.18,0,.45.07.49-.2.04-.24-.1-.49-.32-.57-.24-.08-.52-.08-.79-.08-1.44,0-2.87,0-4.31,0-.4,0-.8,0-1.2.02-.37.02-.55.32-.55.61,0,.33.35.22.56.22,1,.01,2.01,0,3.01,0Z"/>
  <path d="M29.5,15.36c-.01,3.4-1.19,6.53-3.51,9.23-.18.21-.4.66-.68.43-.4-.33.11-.56.29-.78,3.83-4.6,4.47-10.67,1.65-15.76C24.48,3.46,18.8.58,13.24,1.37,7.35,2.2,2.71,6.34,1.41,12.07c-1,4.43,0,8.43,2.85,11.97.1.13.23.24.33.38.12.17.45.35.21.57-.29.27-.48-.07-.64-.26-.39-.46-.77-.93-1.11-1.42-3.38-4.95-3.38-11.26-.02-16.25C6.25,2.25,12.26-.17,17.96,1.04c5.9,1.25,10.3,5.79,11.33,11.66.15.83.17,1.66.21,2.66Z"/>
  <path d="M15.04,15.38c-1.64,0-3.28.01-4.93,0-1.1,0-1.48-.41-1.35-1.48.21-1.76.47-3.52.7-5.28.12-.93.62-1.32,1.56-1.31,2.65.02,5.29,0,7.94,0,1.15,0,1.49.33,1.63,1.45.22,1.73.46,3.45.65,5.18.12,1.04-.23,1.42-1.28,1.43-1.64.02-3.28,0-4.93,0ZM14.76,11.36c0-.94-.03-1.88.01-2.81.02-.58-.2-.76-.75-.74-1,.03-2.01.01-3.01,0-.6,0-.95.26-1.03.86-.22,1.73-.42,3.45-.67,5.17-.11.77.19,1.02.93,1,1.2-.04,2.41-.06,3.61,0,.8.05.97-.27.92-.98-.05-.83-.01-1.67-.01-2.51ZM15.29,11.27c0,.94.02,1.87,0,2.81-.02.54.14.78.73.77,1.3-.04,2.61-.02,3.91,0,.64,0,.93-.23.83-.9-.25-1.72-.5-3.44-.7-5.16-.08-.72-.44-.98-1.12-.97-.97.02-1.94.03-2.91,0-.58-.02-.76.22-.74.77.03.9,0,1.8,0,2.71Z"/>
  <path d="M21.99,21.15c-.02.84-.74,1.51-1.58,1.47-.86-.04-1.48-.73-1.44-1.59.04-.82.68-1.42,1.51-1.42.85,0,1.53.7,1.5,1.54ZM21.44,21.08c-.07-.58-.4-.93-.97-.92-.63,0-1,.41-.96,1.03.04.56.42.91,1.01.87.59-.03.88-.4.92-.98Z"/>
  <path d="M9.56,22.62c-.84,0-1.53-.68-1.52-1.52,0-.81.64-1.45,1.45-1.48.86-.03,1.56.62,1.58,1.46.02.83-.68,1.53-1.51,1.54ZM9.57,20.15c-.6.05-.98.37-.99.94,0,.56.33.95.93.97.65.02,1.02-.36,1.02-.98,0-.58-.4-.88-.95-.93Z"/>
  <path d="M15.05,5.95c.64,0,1.27,0,1.91,0,.16,0,.36,0,.4.21.03.21-.12.3-.3.3-1.37,0-2.75,0-4.12,0-.17,0-.34-.1-.3-.3.04-.2.24-.21.4-.21.67,0,1.34,0,2.01,0Z"/>
</svg>