<?xml version="1.0" encoding="UTF-8"?>
<svg id="Layer_1" xmlns="http://www.w3.org/2000/svg" viewBox="0 0 30 30">
  <g id="GVRZi1">
    <g>
      <path d="M12.02,12c0-1.1-.04-2.19,0-3.29.08-1.7,1.2-2.76,2.88-2.83.29-.01.57.01.61.35.05.39-.24.46-.56.5-1.42.16-2.11.89-2.12,2.18,0,.32.06.49.44.49,1.32-.02,2.64-.02,3.96,0,.5.01.45-.28.46-.6.09-1.71,1.12-2.77,2.82-2.92.33-.03.68-.03.7.4.02.39-.31.42-.61.45-1.41.14-2.06.87-2.07,2.36,0,1.95,0,3.89,0,5.84,0,.2-.01.4-.01.6,0,.24-.15.4-.35.42-.25.03-.47-.12-.45-.38.03-.48-.25-.47-.59-.47-1.25,0-2.51,0-3.76,0-.28,0-.55-.03-.53.39.02.29-.16.48-.45.46-.3-.03-.38-.26-.38-.54,0-1.14,0-2.28,0-3.42,0,0,0,0,.01,0ZM15.29,10.24h0c-.67,0-1.34,0-2.01,0-.31,0-.46.08-.43.41.02.2.02.4,0,.6-.06.46.11.62.59.61,1.1-.04,2.19,0,3.29-.02,1.1-.01.95.2.97-1.01,0-.02,0-.05,0-.07.07-.42-.12-.55-.52-.53-.62.03-1.25,0-1.88,0ZM15.28,12.67s0,0,0,0c-.67,0-1.34.01-2.01,0-.31,0-.46.09-.43.42.02.2.02.4,0,.6-.06.46.11.62.59.6,1.07-.03,2.14,0,3.21,0,1.1,0,1.08,0,1.06-1.12,0-.37-.09-.52-.49-.5-.64.03-1.29,0-1.94,0Z"/>
      <path d="M24.17,18.81c-.7,0-1.49-.31-2.23-.82-1.72-1.18-2.73-1.17-4.48,0-1.67,1.12-3.34,1.1-5-.04-1.59-1.1-2.75-1.09-4.37.02-1.61,1.11-3.36,1.14-4.94.04-.67-.47-1.35-.86-2.2-.88-.28,0-.49-.12-.46-.44.03-.3.25-.39.53-.39.81,0,1.58.22,2.19.73,1.47,1.23,3.25,1.17,4.73.04,1.49-1.13,3.19-1.05,4.75,0,1.8,1.21,2.79,1.21,4.6,0,1.57-1.05,3.27-1.05,4.83.02,1.74,1.19,2.8,1.19,4.54,0,.68-.47,1.4-.78,2.24-.79.29,0,.56.04.59.39.03.37-.25.43-.54.44-.77.03-1.41.37-2.03.8-.96.68-1.6.89-2.76.88Z"/>
      <path d="M24.37,24.1c-.94.03-1.74-.32-2.49-.85-1.57-1.1-2.74-1.11-4.32-.04-1.82,1.24-3.4,1.22-5.21-.06-1.37-.97-2.7-.97-4.1,0-1.84,1.28-3.44,1.29-5.27.02-.58-.4-1.17-.73-1.91-.72-.31,0-.62-.09-.57-.48.05-.39.38-.39.68-.37.8.06,1.51.35,2.17.81,1.7,1.18,2.81,1.17,4.48.02,1.61-1.11,3.35-1.17,4.92.01,1.31.98,2.99,1.14,4.5-.01,1.53-1.17,3.33-1.1,4.93.01,1.63,1.13,2.79,1.14,4.42,0,.68-.47,1.4-.78,2.23-.82.31-.02.62,0,.65.4.02.36-.26.45-.55.45-.78,0-1.42.34-2.02.79-.76.56-1.59.91-2.55.86Z"/>
      <path d="M24.43,21.43c-.94.03-1.74-.26-2.48-.78-1.69-1.19-2.78-1.19-4.48-.02-1.61,1.1-3.26,1.11-4.88.04-1.86-1.24-2.75-1.21-4.65.05-1.48.99-3.03,1.03-4.54.08-.78-.49-1.51-1.04-2.5-1.02-.26,0-.41-.18-.4-.44.01-.28.22-.36.47-.37.89-.03,1.67.26,2.37.78.62.46,1.26.83,2.07.86.79.03,1.49-.19,2.14-.64,2.05-1.4,3.46-1.4,5.49,0,1.32.9,2.6.9,3.93,0,2.04-1.38,3.42-1.38,5.43-.02,1.38.94,2.65.94,4.04-.04.73-.51,1.48-.92,2.4-.94.29,0,.64-.04.66.37.02.39-.27.47-.59.46-.79-.01-1.41.37-2.01.82-.74.55-1.56.86-2.47.82Z"/>
    </g>
  </g>
</svg>