<?xml version="1.0" encoding="UTF-8"?>
<svg id="Layer_1" xmlns="http://www.w3.org/2000/svg" viewBox="0 0 30 30">
  <g id="_x39_90357">
    <path d="M10.79,18.64c-3.41-1.14-6.18-3.39-9.77-3.45-.24,0-.55-.02-.52-.35.02-.27.29-.36.55-.36,1.27-.02,2.48.28,3.65.74.5.2.94.32,1.49.04,3.68-1.87,7.4-1.58,11.13-.12.4.16.8.33,1.25.52.13-1.18.33-2.15-1.06-2.75-1.02-.43-.98-1.61-.83-2.59.2-1.29.68-2.5,1.44-3.56.66-.92,1.26-.9,1.88.04.81,1.22,1.26,2.58,1.54,4.07,1.28-1.32,1.65-1.26,2.42.33.35.73.66,1.47.72,2.29.05.74-.15,1.35-.83,1.75-.25.15-.73.13-.65.58.09.48.59.38.89.44,1.74.32,3.32,1.01,4.75,2.04.3.21.87.43.56.88-.29.41-.63-.08-.9-.27-3.46-2.47-7.27-2.57-11.24-1.7-3.75.82-7.15,2.49-10.5,4.29-.89.48-1.77.96-2.93,1.58,1.99.19,3.62-.16,5.21-.81,2.32-.94,4.64-1.86,7.15-2.19,1.77-.23,3.45,0,5.08.74,2.45,1.12,4.87,2.4,7.68,2.35.24,0,.56.03.52.35-.04.34-.37.37-.66.38-1.48.02-2.87-.37-4.24-.88-.87-.32-1.77-.61-2.57-1.07-3.08-1.78-6.18-1.34-9.36-.29-2.25.74-4.33,1.99-6.78,2.15-1.54.1-3.07.1-4.6.02-.3-.02-.74.05-.76-.39-.02-.4.41-.31.65-.35,2.46-.4,4.46-1.83,6.62-2.9.93-.46,1.85-.95,3-1.55ZM6.31,15.98c1.78.75,3.29,1.4,4.8,2.03.25.1.58.23.81.15,1.92-.7,3.85-1.36,5.84-1.91-3.68-1.76-7.36-2.24-11.45-.27ZM19.52,12.65c1-.18,1.37-.85,1.27-1.81-.13-1.26-.64-2.4-1.28-3.49-.24-.42-.53-.64-.87-.08-.73,1.18-1.3,2.42-1.29,3.84,0,.8.31,1.4,1.17,1.51.38-.47-.28-1.49.58-1.48.58.01.07.99.42,1.51ZM23.41,14.66c.11-.07.28-.13.35-.25.41-.66-.14-3.06-.77-3.49-.15-.1-.26-.11-.42,0-.49.35-1.17,2.58-.94,3.16.1.27.25.56.58.54.35-.02.23-.35.27-.57.04-.23.02-.56.35-.52.27.03.32.33.34.57.02.19-.01.41.25.55ZM22.7,15.93q-1.68-1.19-2-2.9c-1.2.45-1.73,1.59-1.31,2.75.08.23.21.33.42.32.86-.04,1.72-.1,2.88-.17Z"/>
  </g>
</svg>