<?xml version="1.0" encoding="UTF-8"?>
<svg id="Layer_1" xmlns="http://www.w3.org/2000/svg" viewBox="0 0 30 30">
  <g id="V7Kp6v">
    <g>
      <path d="M14.99,18.6c-4.22,0-8.45.04-12.67-.03-.97-.01-1.11.29-1.1,1.15.05,2.96.02,5.91.01,8.87,0,.31.13.79-.33.81-.55.02-.39-.51-.39-.83-.01-3.74,0-7.48-.02-11.22,0-.69.15-1.05.9-.94.24.03.48,0,.72,0,1.33,0,2.01-.7,2.01-2.07,0-1.09.02-2.17,0-3.26-.01-.55.12-.83.75-.82,2.17.03,4.35.02,6.52,0,.57,0,.73.24.71.77-.02.93.11,1.89-.04,2.8-.17,1.01.35,1.72.81,2.42.31.46,1,.17,1.52.15.41-.02.23-.43.23-.67.01-3.17,0-6.34.01-9.51,0-.24,0-.48.04-.72.02-.15.15-.26.32-.27.18,0,.3.11.33.25.04.23.04.48.04.72,0,3.14,0,6.28.01,9.41,0,.28-.22.8.31.76.51-.04,1.02.3,1.56-.37,1.19-1.48.49-3.1.61-4.65.07-.84.23-1.15,1.12-1.12,2.02.06,4.04.04,6.06,0,.64-.01.86.21.83.84-.04.87.09,1.76-.04,2.62-.15,1.01.34,1.74.77,2.53.17.32.48.16.72.17,2.16.04,2.16.04,2.16,2.21,0,3.32,0,6.64,0,9.96,0,.31.14.79-.32.81-.56.03-.39-.5-.39-.82-.01-3.05-.03-6.1,0-9.14,0-.67-.15-.86-.84-.86-4.31.03-8.63.02-12.94.02ZM21.86,15.34c.9,0,1.81-.02,2.71,0,.42.01.59-.1.58-.55-.03-1.08-.03-2.17,0-3.25.01-.45-.16-.56-.58-.55-1.78.02-3.55.02-5.33,0-.45,0-.64.11-.63.6.03,1.05.03,2.11,0,3.16-.02.49.17.62.63.6.87-.03,1.75,0,2.62,0ZM8.05,15.34c.93,0,1.87-.01,2.8,0,.37,0,.55-.08.54-.5-.02-1.11-.02-2.23,0-3.34,0-.4-.14-.52-.53-.51-1.81.01-3.61.02-5.42,0-.41,0-.6.09-.58.55.03,1.08.03,2.17,0,3.25-.01.44.14.58.57.56.87-.03,1.75,0,2.62,0ZM14.96,17.88c4.25,0,8.51,0,12.76,0,.18,0,.36,0,.54,0,.23,0,.49.04.5-.34.01-.36-.19-.39-.46-.38-.15,0-.3,0-.45,0-8.57,0-17.14,0-25.71,0-.12,0-.24,0-.36,0-.26,0-.56-.06-.54.38.02.45.35.31.59.34.15.02.3,0,.45,0,4.22,0,8.45,0,12.67,0ZM4.19,16.13v.17h7.87c0-.06,0-.11,0-.17h-7.87ZM17.95,16.15c0,.06,0,.12,0,.17h7.86v-.17h-7.86Z"/>
      <path d="M8.51,20.41c1.03,0,2.05-.01,3.08,0,.98.02,1.61.61,1.61,1.46,0,.85-.64,1.41-1.63,1.43-.63.01-1.27.06-1.9-.01-.72-.08-.87.22-.82.87.05.81.07,1.63,0,2.44-.06.67.23.97.8,1.18.68.25,1.33.57,1.98.87.23.11.58.2.43.56-.14.35-.45.26-.68.1-1.91-1.3-3.81-1.3-5.73,0-.22.15-.53.29-.7-.06-.18-.36.15-.46.38-.58.13-.07.28-.12.41-.19.78-.37,2.06-.58,2.25-1.15.37-1.12.13-2.43.14-3.67,0-.36-.25-.35-.5-.35-.75,0-1.51.01-2.26,0-.97-.02-1.6-.63-1.58-1.48.02-.82.63-1.39,1.56-1.41,1.05-.02,2.11,0,3.17,0ZM8.55,21.14c-1.02,0-2.05,0-3.07,0-.51,0-.94.14-.95.71-.01.57.4.75.92.74,2.02,0,4.03,0,6.05,0,.51,0,.95-.14.95-.71,0-.63-.47-.75-1-.74-.96.01-1.93,0-2.89,0Z"/>
      <path d="M21.88,20.41c1.03,0,2.05-.01,3.08,0,.99.01,1.62.59,1.63,1.44,0,.85-.63,1.42-1.61,1.46-.06,0-.12,0-.18,0-.83.07-1.96-.38-2.41.19-.42.53-.05,1.62-.16,2.45-.15,1.14.24,1.79,1.36,2.09.55.14,1.05.45,1.57.69.2.09.39.23.3.48-.11.29-.34.29-.6.17-.8-.36-1.61-.68-2.39-1.07-.42-.21-.77-.19-1.19.01-.76.37-1.54.68-2.31,1.03-.24.11-.48.21-.63-.07-.19-.35.11-.47.36-.59.77-.35,1.53-.7,2.31-1.03.33-.14.54-.3.52-.72-.03-1.02-.03-2.05,0-3.07.01-.44-.15-.57-.58-.56-.75.03-1.51.03-2.26,0-.91-.03-1.52-.64-1.51-1.46,0-.82.62-1.41,1.54-1.43,1.05-.02,2.11,0,3.17,0ZM21.97,21.14c-1.05,0-2.11,0-3.16,0-.53,0-.92.2-.89.77.02.51.41.68.89.68,2.05,0,4.09,0,6.14,0,.52,0,.92-.2.89-.77-.02-.51-.4-.69-.89-.68-.99,0-1.99,0-2.98,0Z"/>
      <path d="M8.14,7.47c-.37-.03-.82-.09-.95-.43-.38-.96-1.16-.73-1.87-.75-.26,0-.58.09-.73-.21-.19-.37.17-.53.36-.73.56-.59,1.11-1.19,1.73-1.72.77-.66,1.32-1.37,1.1-2.47-.05-.26-.04-.61.33-.62.44,0,.42.39.37.67-.19,1.06.34,1.74,1.07,2.39.67.6,1.28,1.27,1.92,1.91.15.15.33.31.22.54-.1.22-.32.24-.54.24-.3,0-.6.01-.9,0-.38-.02-.67.01-.86.45-.22.52-.7.71-1.25.73ZM5.68,5.51h4.81c-.79-.78-1.45-1.42-2.1-2.07-.24-.25-.4-.14-.6.05-.64.62-1.29,1.24-2.12,2.02Z"/>
      <path d="M21.91,7.47c-.37-.02-.85-.09-.99-.46-.34-.9-1.05-.7-1.71-.73-.31-.01-.74.14-.89-.24-.16-.39.26-.56.47-.79.5-.52.99-1.06,1.53-1.53.81-.7,1.43-1.44,1.2-2.61-.05-.26-.01-.59.37-.58.31,0,.39.29.33.53-.3,1.31.53,2.05,1.36,2.81.58.53,1.11,1.1,1.66,1.66.15.15.31.31.17.55-.1.18-.28.2-.47.2-.27,0-.54.02-.81,0-.48-.04-.84.02-1.07.56-.19.44-.65.6-1.17.62ZM24.25,5.51c-.79-.78-1.45-1.43-2.11-2.07-.13-.13-.28-.25-.46-.07-.69.68-1.37,1.37-2.15,2.14h4.71Z"/>
      <path d="M19.73,14.3c-.09-.05-.21-.09-.28-.17-.14-.18-.04-.35.09-.48.65-.66,1.31-1.32,1.97-1.98.16-.16.37-.22.56-.06.17.14.17.32.03.47-.69.71-1.4,1.41-2.1,2.1-.06.06-.16.07-.28.12Z"/>
      <path d="M20.52,11.47c.27.02.43.25.27.48-.38.53-.83,1.03-1.39,1.37-.26.16-.45-.05-.42-.36.02-.23,1.3-1.47,1.55-1.49Z"/>
      <path d="M7.91,11.5c.34.07.5.28.24.56-.68.73-1.39,1.42-2.1,2.11-.14.13-.33.14-.49,0-.13-.11-.18-.28-.06-.4.73-.75,1.48-1.49,2.23-2.23.04-.04.11-.03.18-.05Z"/>
      <path d="M6.9,11.78c-.02.27-1.34,1.58-1.56,1.54-.39-.06-.43-.35-.23-.58.38-.45.8-.88,1.26-1.25.3-.24.48-.01.53.29Z"/>
    </g>
  </g>
</svg>