<?xml version="1.0" encoding="UTF-8"?>
<svg id="Layer_1" xmlns="http://www.w3.org/2000/svg" viewBox="0 0 30 30">
  <g id="_x37_W5dCA">
    <g>
      <path d="M.5,28.59c1.77-2.26,3.44-4.39,4.88-6.7,1.76-2.82,2.16-5.52.34-8.56-1.84-3.07-1.35-5.01,1.53-7.2,3.69-2.81,8.08-3.95,12.51-4.96-2.62,1.04-5.32,1.89-7.87,3.12-1.64.79-3.25,1.63-4.59,2.89-1.77,1.65-2,2.94-.94,5.11.23.47.47.95.75,1.38,1.43,2.18,1.48,4.41.44,6.78-1.16,2.64-2.69,5.05-4.33,7.41-.69,1-1.61.75-2.72.71Z"/>
      <path d="M22.24,2.75c-1.4.91-2.81,1.8-4.19,2.74-.67.46-1.31.96-1.9,1.52-1.76,1.68-1.68,2.68.43,3.84,1.92,1.06,3.97,1.88,5.87,2.95,3.09,1.75,5.78,3.94,6.69,7.61.52,2.07.38,4.17.16,6.26-.08.74-.46,1.09-1.24,1.03-.94-.07-.7-.73-.65-1.27.08-.85.17-1.71.33-2.55.7-3.84-.87-6.69-3.87-8.89-1.85-1.36-3.87-2.44-5.92-3.47-.77-.38-1.55-.75-2.27-1.22-1.87-1.22-2.03-2.62-.53-4.26.26-.28.53-.55.82-.79,1.89-1.54,4.04-2.64,6.26-3.5Z"/>
      <path d="M16.45,25.01c0,1.12-.19,2.15-.5,3.15-.07.21.12.8-.48.62-.4-.12-.42-.39-.33-.79.2-.98.31-1.98.5-2.96.09-.45-.2-1.28.6-1.17.71.1.1.8.22,1.14Z"/>
      <path d="M16.63,20.87c.02.24.04.57-.38.57-.36,0-.46-.3-.51-.59-.19-1.22-.25-2.46-.66-3.65-.09-.25.03-.46.32-.53.42-.1.47.27.56.5.46,1.17.42,2.43.66,3.69Z"/>
      <path d="M12.5,11.7c.46.02.58.45.75.75.42.69,1.68,1.52.92,2.1-.7.54-.94-1-1.52-1.5-.21-.18-.37-.43-.5-.68-.15-.31-.01-.54.33-.66Z"/>
      <path d="M10.44,8.32c.45.78.74,1.29,1.03,1.79.12.21.48.43.06.66-.23.13-.46.01-.59-.21-.34-.58-.79-1.14-.5-2.24Z"/>
    </g>
  </g>
</svg>