<?xml version="1.0" encoding="UTF-8"?>
<svg id="Layer_1" xmlns="http://www.w3.org/2000/svg" viewBox="0 0 30 30">
  <path d="M14.88,29.18c-3.8,0-7.6,0-11.4,0-1.97,0-2.46-.58-2.12-2.53.34-1.91.7-3.82,1.09-5.72.32-1.58,1.22-2.78,2.66-3.49,1.87-.92,3.8-1.73,5.67-2.64.6-.3.94-.17,1.31.32.67.86,1.39,1.68,2.08,2.53.54.66,1.05.73,1.61.02.65-.82,1.38-1.57,1.98-2.42.49-.7.97-.7,1.67-.35,1.7.83,3.44,1.6,5.15,2.4,1.72.8,2.7,2.15,3.03,4.02.31,1.77.67,3.53,1.01,5.3.37,1.92-.13,2.56-2.06,2.57-3.89.01-7.79,0-11.68,0ZM20.94,16.93c.66,1.63.12,3.15,1.31,4.39.65.67.25,1.74-.63,2.32-.88.58-1.74.43-2.42-.34-.7-.79-.79-1.85.02-2.41,1.68-1.15.92-2.47.51-3.76-.44-1.37-.8-1.39-1.72-.29-2.9,3.46-3.12,3.45-6.02.05-.28-.33-.44-.98-1.03-.8-.48.14-.58.72-.73,1.16-.14.4-.26.82-.28,1.24-.02.46-.25.95.52,1.25,1.68.67,2.62,2.47,2.46,4.2-.06.66-.57.69-1.01.8-.35.09-.77.27-.99-.21-.11-.24-.32-.61,0-.76,1.41-.63.45-1.51.19-2.2-.26-.68-1-.85-1.7-.68-.71.17-1.16.69-1.2,1.42-.03.63-.12,1.49.55,1.72.47.16.77.25.79.73.02.57-.51.47-.83.55-.44.11-.93.29-1.27-.27-.57-.93-.71-3.58.1-4.19,1.35-1.02,1.2-2.37,1.37-3.85-.93.42-1.73.81-2.56,1.14-1.71.67-2.64,1.9-2.94,3.69-.26,1.59-.55,3.17-.89,4.74-.23,1.05-.05,1.56,1.2,1.5,1.85-.1,3.7-.02,5.55-.02,5.46,0,10.92,0,16.37,0q1.96,0,1.62-1.88c-.29-1.58-.59-3.16-.87-4.75-.24-1.36-.98-2.35-2.2-2.96-.97-.49-1.97-.91-3.29-1.51ZM20.67,22.77c.4-.13.67-.37.59-.82-.07-.37-.33-.57-.72-.53-.39.04-.62.3-.62.66.01.43.29.67.75.69Z"/>
  <path d="M15.06,13.8c-3.65.02-6.58-2.8-6.62-6.38-.04-3.68,2.87-6.62,6.54-6.61,3.63,0,6.55,2.89,6.56,6.46.01,3.6-2.87,6.5-6.49,6.53ZM15.03,1.97c-2.95-.02-5.37,2.34-5.42,5.27-.05,3,2.38,5.43,5.41,5.41,2.95-.02,5.37-2.42,5.37-5.32,0-2.9-2.44-5.33-5.36-5.35Z"/>
</svg>